<?xml version="1.0" encoding="UTF-8"?>
<svg id="Layer_1" data-name="Layer 1" xmlns="http://www.w3.org/2000/svg" viewBox="0 0 15.81 15.81">
  <defs>
    <style>
      .cls-1 {
        fill: #4b2a6f;
      }

      .cls-1, .cls-2 {
        stroke-width: 0px;
      }

      .cls-2 {
        fill: #fff;
      }
    </style>
  </defs>
  <circle class="cls-1" cx="7.9" cy="7.9" r="7.9"/>
  <path class="cls-2" d="M12.07,11.13l-1.36-1.36c.47-.66.73-1.47.73-2.28,0-2.18-1.77-3.95-3.95-3.95s-3.95,1.77-3.95,3.95,1.77,3.95,3.95,3.95c.82,0,1.62-.26,2.28-.73l1.36,1.36c.13.13.3.19.47.19s.34-.06.47-.19c.26-.26.26-.68,0-.93ZM7.49,4.87c1.45,0,2.62,1.18,2.62,2.62s-1.18,2.62-2.62,2.62-2.62-1.18-2.62-2.62,1.18-2.62,2.62-2.62Z"/>
</svg>