<?xml version="1.0" encoding="UTF-8"?>
<svg id="Layer_1" data-name="Layer 1" xmlns="http://www.w3.org/2000/svg" viewBox="0 0 60 60">
  <defs>
    <style>
      .cls-1 {
        fill: #4b2a6f;
      }

      .cls-1, .cls-2 {
        stroke-width: 0px;
      }

      .cls-2 {
        fill: #fff;
      }
    </style>
  </defs>
  <g>
    <path class="cls-2" d="M45.97,15.27c.19.92.29,1.79.04,2.69-.11.42-.27.82-.4,1.23-.07.21-.14.42-.19.63-.1.39-.06.3-.38.57.17-.14.35-.18.53-.16.98-1.66,1.85-3.39,2.59-5.2.28-.68,1.14-.67,1.37.1.75,2.45.76,5.04.08,7.41,1.68-1.4,2.75-3.57,2.96-5.92.09-.97,1.48-.89,1.42.1-.13,2.39.61,4.89,2.16,6.68.42-1.29.58-2.68.63-4.06.06-1.61.11-3.31-.09-4.92-.16-1.33-.67-2.43-1.76-3.16-1.01-.68-2.22-.99-3.34-1.31-1.41-.41-2.86-.71-4.26-.27-.07.02-.13.05-.2.08-.06.05-.13.1-.22.13-1.94.68-1.3,3.78-.96,5.38Z"/>
    <path class="cls-2" d="M17.16,30.69c-1.23.72-1.87,2.33-1.67,3.83.21,1.62,1.2,3.01,2.23,4.19,1.02,1.18,2.13,2.28,3.26,3.34.73-1.49,1.54-2.77,2.82-3.77,1.07-.84,2.37-1.57,3.05-2.85.46-.86.52-1.89.46-2.89-.05-.86-.06-2.16-.9-2.59-1.77-.92-3.56.67-4.68,1.89-.48.52-1.17-.03-1.18-.62-.95-.87-2.27-1.18-3.38-.54ZM19.32,34.79c.27-.23.67-.34,1.05-.37.18-.01.36,0,.53.02.23-.03.47-.02.69.06.27.09.47.25.59.43.18.23.22.53.1.78-.03.08-.07.16-.13.23-.03.04-.06.07-.09.1-.18.44-.67.75-1.21.78-.53.03-1-.18-1.44-.43-.34-.19-.46-.5-.4-.79-.05-.28.04-.58.3-.8Z"/>
    <path class="cls-2" d="M24.78,6.06c-.14.59-.36,1.35-.26,1.97.1.59.56,1.03.91,1.47.66.82,1.56,1.91,1.67,3.01.09.89-.6,1.48-.68,2.25.32-.22.66-.41,1-.57,2.2-1.08,4.97-1.24,7.07.26-.09-1.18-.79-2.32-1.58-3.16-1.05-1.11-2.92-2.07-3.92-.49-.45.72-1.48.15-1.29-.69.25-1.09.39-2.56.87-3.55.37-.77.89-1.48,1.32-2.22.52-.89,1.04-1.79,1.51-2.72-.17.03-.33.06-.42.08-1.01.29-1.97.77-2.95,1.15-.59.23-1.19.41-1.79.6-.01,0-.02.02-.03.03-.88.49-1.19,1.58-1.42,2.57Z"/>
    <path class="cls-2" d="M41.15,29.43c-.54.19-.97.61-1.01,1.24-.03.49.16,1.08.56,1.38.48.36,1.2.24,1.74.36.63.14.93.51,1.43.89.71.54,1.28.09,1.5-.69.17-.59.29-1.41-.14-1.92-.49-.6-1.36-.57-2.02-.59-.43-.02-.64-.36-.66-.72-.1-.01-.2-.03-.29-.04-.38-.03-.76-.03-1.12.1Z"/>
    <path class="cls-2" d="M56.19,33.77c-1.8-1.89-4.38-2.58-6.66-1.7-.36.14-.76.06-.97-.35-1.36-2.6-3.32-4.71-5.77-6.1-.45-.26-.38-.89-.12-1.22.71-.88,1.36-1.81,1.99-2.76-.45-.29-.78-.87-.75-1.54.06-1.53,1.04-2.63.74-4.24-.29-1.53-.67-3.06-.37-4.59-.13.08-.26.17-.39.25-3.91,2.53-7.54,6.02-8.61,11.05-.09.41-.53.59-.89.47-1.66-.55-3.38-.97-5.1-.81-1.73.16-3.36.82-4.93,1.52-.48.22-1.06-.12-1.06-.74.02-1.93.07-3.95.84-5.68.25-.57.6-1.07,1-1.51-.16-.49-.23-.98-.16-1.51.04-.3.12-.57.24-.84.13-.28.47-.59.44-.93-.05-.66-.89-1.56-1.28-2.04-.43-.54-.88-1.06-1.13-1.72-.45-1.23-.03-2.77.32-3.95.05-.16.1-.32.16-.47-1.47.7-2.84,1.66-3.79,3.07-1.07,1.58-1.58,3.55-1.76,5.51-.16,1.68-.18,3.47.08,5.16.2,1.29.37,2.51.39,3.81,0,.27-.1.46-.25.57-.88,1.02-1.94,1.69-3.05,2.38-.87.54-1.75,1.08-2.52,1.77-.66.6-1.27,1.26-1.89,1.9-.76.77-2.08,2.06-2.78.4-.49-1.17-1.09-2.43-1.22-3.64-.77.77-1.4,1.69-1.66,2.82-.33,1.42.04,3.25,1.32,4.04.57.35.36,1.25-.2,1.39-2.7.71-3.9,3.6-4.53,6.46.96-.95,2.08-1.71,3.32-2.23.63-.26,1.34.43.96,1.12-2,3.61-2.45,8.07-1.39,12.22,1.44-2.16,3.03-4.18,4.78-6.05.42-.44,1.26-.03,1.21.63-.13,1.6.72,2.94,1.54,4.23.67,1.05,1.21,2.15,1.85,3.21.44.73.99,1.13,1.77,1.32,1.37.33,2.8.4,4.18.65,3.01.53,6.01,1.2,9.04,1.47,4.58.4,10.89-.02,13.57-4.53.37-.62,1.35-.29,1.32.48-.05,1.36-.23,2.69-.56,3.97,2.22-2.47,3.9-5.48,4.95-8.79.21-.66.95-.64,1.31-.09.85,1.32,1.4,2.82,1.63,4.37,2.23-4.31,2.88-9.55,1.79-14.53-.09-.43.14-.81.52-.91,1.74-.48,3.51.27,4.73,1.64-.3-1.65-1.03-3.19-2.22-4.44ZM29.4,38.68s.08.03.12.05c.21-.02.43-.03.65-.03.11,0,.21.03.29.08.65.15,1.27.61,1.45,1.33.15.59-.02,1.02-.36,1.3-.07.16-.16.32-.29.45-.49.5-1.32.56-1.98.26-.35-.07-.67-.22-.92-.45,0,0-.01,0-.02-.01-.71.01-1.4-.49-1.39-1.34,0-.51.23-.88.56-1.13.42-.53,1.26-.68,1.88-.51ZM15.58,52.05c-.44.85-1.65-.02-1.22-.86.63-1.24,1.6-2.54,1.28-4.07-.26-1.21-.89-2.36-1.74-3.22-.94-.95-2.18-1.49-3.45-1.43-1.08.05-2.75.63-2.88,1.99-.1.97-1.52.88-1.42-.1.4-3.99,5.64-4.09,8.1-2.09,1.33,1.09,2.32,2.68,2.74,4.41.5,2.09-.54,3.68-1.42,5.39ZM23.94,40.16c-.82.8-1.33,1.86-1.83,2.91-.09.18-.21.27-.34.32-.1.49-.55.86-1.01.44-1.72-1.58-3.5-3.22-4.9-5.14-1.17-1.6-2.05-3.54-1.77-5.57.25-1.85,1.39-3.54,3.06-4.11,1.46-.49,3.05-.03,4.24,1.03,1.31-1.24,2.94-2.19,4.79-1.75,2.3.55,2.64,3.09,2.57,5.25-.08,2.22-1.14,3.75-2.73,4.97-.7.54-1.44,1.03-2.07,1.65ZM31.79,49.53c-.92,1.06-2.17,1.23-3.49,1.1-1.32-.13-2.76-.45-3.52-1.81-.75-1.33-.35-3.14-.22-4.56.09-.98,1.51-.88,1.42.1-.09.99-.32,2.15-.16,3.15.19,1.17,1.27,1.44,2.21,1.55.94.11,1.9.21,2.61-.52.68-.69.84-1.74.63-2.72-.22-.98,1.17-1.28,1.38-.31.32,1.45.06,2.95-.86,4.02ZM39.4,28.79c.82-.92,2.03-1.11,3.19-.96.66.08,1.65.26,1.99.88.73.17,1.4.52,1.89,1.23.68,1,.55,2.45.16,3.51-.39,1.06-1.29,1.78-2.4,1.62-.57-.08-.95-.38-1.39-.76-.58-.5-1.14-.42-1.84-.55-2.1-.4-3.04-3.35-1.61-4.96ZM39.81,38.74c-.14.12-.29.23-.44.31-.53.66-1.43.7-2.1.26-.19-.06-.38-.14-.57-.25-.41-.24-.44-.92-.12-1.22.88-.82,2.05-.92,3.11-.32.4.23.45.93.12,1.22ZM52.38,44.54c.79.54.05,1.82-.74,1.28-2.79-1.92-6.24-.08-8.61,1.51-1.31.87-2.6,1.82-3.79,2.87-1.03.9-2.01,1.99-2.1,3.52-.05.98-1.48.88-1.42-.1.1-1.81,1.05-3.21,2.27-4.34,1.34-1.23,2.86-2.32,4.35-3.33,2.85-1.9,6.77-3.67,10.05-1.41Z"/>
  </g>
  <g>
    <path class="cls-1" d="M56.93,32.46c-2.12-2.04-4.84-2.73-7.43-1.99-1.31-2.31-3.09-4.28-5.23-5.67,1.69-2.21,3.13-4.61,4.34-7.17.24,2.17-.11,4.37-1.08,6.27-.35.69.31,1.39.96,1.12,2.04-.85,3.6-2.54,4.55-4.6.55,1.88,1.59,3.6,3.04,4.91.28.25.83.13.98-.21,1.31-2.97,1.3-6.43,1.15-9.72-.07-1.46-.28-2.94-1.16-4.16-.8-1.11-2.02-1.76-3.22-2.2-1.42-.52-2.93-.99-4.41-1.12-1.6-.15-3.03.34-4.4,1.12-2.34,1.32-4.6,2.9-6.52,4.85-2.03,2.05-3.63,4.55-4.4,7.47-1.62-.49-3.26-.79-4.93-.66-1.54.13-3,.62-4.41,1.2.03-1.17.13-2.34.51-3.42.47-1.35,1.49-2.23,2.66-2.84,2.05-1.07,4.86-1.26,6.59.78.39.45,1.02.28,1.2-.25,1.17-3.53-3.03-8.63-6.16-7.7.07-.39.13-.8.28-1.12.38-.85.98-1.63,1.44-2.43.52-.9,3.19-4.53.79-4.91-1.12-.18-2.35.48-3.35.89-1.25.52-2.53.87-3.8,1.32-1.7.61-3.36,1.4-4.73,2.66-1.41,1.3-2.36,3.07-2.89,5-.62,2.29-.72,4.78-.53,7.18.12,1.51.43,2.95.48,4.46-1.57,1.68-3.77,2.47-5.45,4.02-.51.47-.98.97-1.47,1.47-.29.3-.72.6-1.02.93-.18-.44-.38-.87-.55-1.32-.33-.84-.71-1.93-.11-2.7.46-.59-.11-1.77-.84-1.27-1.81,1.25-3.55,2.95-3.94,5.37-.24,1.51.06,3.26,1.01,4.47C1.54,34.25.53,38.91,0,42.67c-.11.8.97,1.05,1.32.48.71-1.14,1.59-2.11,2.62-2.86-1.48,3.96-1.53,8.58-.06,12.71.22.61.94.86,1.3.28,1.3-2.09,2.74-4.04,4.33-5.87.52,2.1,2.09,3.97,3.08,5.83.42.79.88,1.59,1.61,2.1,1.04.73,2.3.77,3.47.93,6.5.92,12.96,2.94,19.41,1.31,1.95-.49,3.82-1.33,5.29-2.71-.24,1.37-.64,2.69-1.22,3.94-.36.77.46,1.55,1.1,1.01,3.13-2.61,5.5-6.11,7.01-10.06.63,1.46.89,3.03.78,4.65-.05.81.94,1.04,1.32.48,3.26-4.72,4.42-11,3.33-16.93,1.83-.07,3.46,1.61,3.79,3.58.16.94,1.3.68,1.4-.1.44-3.24-.61-6.71-2.97-8.99ZM51.61,9.94c1.13.33,2.33.63,3.34,1.31,1.09.73,1.6,1.83,1.76,3.16.2,1.61.15,3.32.09,4.92-.05,1.38-.21,2.77-.63,4.06-1.56-1.8-2.3-4.3-2.16-6.68.05-.99-1.34-1.07-1.42-.1-.21,2.36-1.29,4.52-2.96,5.92.67-2.37.66-4.96-.08-7.41-.23-.77-1.1-.78-1.37-.1-.73,1.81-1.6,3.55-2.59,5.2-.17-.03-.36.01-.53.16.32-.28.28-.18.38-.57.05-.21.12-.42.19-.63.13-.41.29-.81.4-1.23.24-.89.15-1.77-.04-2.69-.34-1.6-.98-4.7.96-5.38.09-.03.16-.08.22-.13.07-.02.13-.06.2-.08,1.4-.44,2.85-.14,4.26.27ZM30.97,1.72c.09-.03.25-.05.42-.08-.46.93-.99,1.83-1.51,2.72-.43.73-.95,1.45-1.32,2.22-.48.99-.62,2.46-.87,3.55-.19.84.84,1.4,1.29.69,1-1.58,2.87-.63,3.92.49.79.84,1.48,1.98,1.58,3.16-2.1-1.51-4.87-1.34-7.07-.26-.34.17-.68.36-1,.57.09-.77.77-1.36.68-2.25-.11-1.1-1.01-2.19-1.67-3.01-.35-.44-.81-.88-.91-1.47-.11-.62.12-1.38.26-1.97.23-.99.54-2.07,1.42-2.57.01,0,.02-.02.03-.03.6-.19,1.2-.37,1.79-.6.98-.38,1.94-.85,2.95-1.15ZM53.68,36.57c-.37.1-.61.48-.52.91,1.09,4.98.44,10.22-1.79,14.53-.23-1.55-.78-3.05-1.63-4.37-.35-.55-1.1-.57-1.31.09-1.05,3.31-2.73,6.31-4.95,8.79.32-1.28.51-2.61.56-3.97.03-.77-.95-1.1-1.32-.48-2.68,4.51-8.99,4.93-13.57,4.53-3.03-.26-6.03-.93-9.04-1.47-1.38-.25-2.81-.32-4.18-.65-.78-.19-1.33-.59-1.77-1.32-.64-1.06-1.19-2.17-1.85-3.21-.82-1.29-1.68-2.63-1.54-4.23.05-.66-.79-1.07-1.21-.63-1.75,1.87-3.35,3.89-4.78,6.05-1.06-4.15-.61-8.61,1.39-12.22.38-.69-.32-1.38-.96-1.12-1.25.52-2.36,1.28-3.32,2.23.63-2.86,1.83-5.75,4.53-6.46.55-.14.76-1.04.2-1.39-1.29-.8-1.65-2.62-1.32-4.04.26-1.13.89-2.05,1.66-2.82.13,1.21.73,2.47,1.22,3.64.69,1.66,2.02.37,2.78-.4.63-.64,1.23-1.3,1.89-1.9.77-.7,1.65-1.23,2.52-1.77,1.11-.7,2.17-1.36,3.05-2.38.15-.11.26-.3.25-.57-.01-1.3-.18-2.53-.39-3.81-.27-1.69-.24-3.48-.08-5.16.19-1.96.7-3.93,1.76-5.51.95-1.41,2.32-2.37,3.79-3.07-.06.16-.11.31-.16.47-.35,1.17-.77,2.72-.32,3.95.25.67.7,1.18,1.13,1.72.38.48,1.23,1.38,1.28,2.04.02.34-.31.66-.44.93-.13.27-.2.54-.24.84-.07.53,0,1.02.16,1.51-.4.44-.75.94-1,1.51-.77,1.74-.82,3.76-.84,5.68,0,.62.58.96,1.06.74,1.57-.7,3.2-1.36,4.93-1.52,1.72-.16,3.44.26,5.1.81.35.12.8-.06.89-.47,1.07-5.03,4.69-8.51,8.61-11.05.13-.08.26-.17.39-.25-.3,1.53.08,3.05.37,4.59.3,1.6-.68,2.71-.74,4.24-.03.67.3,1.25.75,1.54-.63.95-1.28,1.88-1.99,2.76-.26.33-.33.96.12,1.22,2.44,1.39,4.41,3.5,5.77,6.1.21.4.61.49.97.35,2.28-.88,4.86-.19,6.66,1.7,1.18,1.24,1.92,2.79,2.22,4.44-1.22-1.37-2.99-2.12-4.73-1.64Z"/>
    <path class="cls-1" d="M28.75,33.54c.07-2.16-.27-4.7-2.57-5.25-1.84-.44-3.48.51-4.79,1.75-1.19-1.06-2.78-1.52-4.24-1.03-1.67.56-2.81,2.26-3.06,4.11-.28,2.03.6,3.97,1.77,5.57,1.4,1.92,3.18,3.56,4.9,5.14.45.42.91.05,1.01-.44.13-.05.26-.14.34-.32.5-1.05,1.01-2.11,1.83-2.91.64-.62,1.38-1.11,2.07-1.65,1.59-1.22,2.65-2.76,2.73-4.97ZM23.79,38.28c-1.28,1-2.09,2.28-2.82,3.77-1.13-1.06-2.24-2.16-3.26-3.34-1.02-1.18-2.02-2.57-2.23-4.19-.19-1.51.44-3.12,1.67-3.83,1.1-.64,2.42-.33,3.38.54.02.59.7,1.15,1.18.62,1.13-1.22,2.91-2.81,4.68-1.89.84.44.85,1.73.9,2.59.06,1,0,2.02-.46,2.89-.68,1.28-1.98,2.01-3.05,2.85Z"/>
    <path class="cls-1" d="M21.59,34.49c-.22-.07-.45-.08-.69-.06-.17-.02-.35-.03-.53-.02-.39.03-.78.13-1.05.37-.25.22-.35.52-.3.8-.06.29.06.6.4.79.45.25.91.46,1.44.43.54-.03,1.03-.33,1.21-.78.03-.03.06-.06.09-.1.06-.07.1-.15.13-.23.11-.25.08-.55-.1-.78-.13-.19-.33-.35-.59-.43Z"/>
    <path class="cls-1" d="M37.26,39.31c.68.45,1.58.41,2.1-.26.15-.09.3-.19.44-.31.33-.28.28-.99-.12-1.22-1.06-.61-2.24-.5-3.11.32-.32.3-.29.98.12,1.22.18.11.37.19.57.25Z"/>
    <path class="cls-1" d="M26.95,40.31c0,.85.68,1.35,1.39,1.34,0,0,.01,0,.02.01.25.23.57.38.92.45.65.3,1.48.24,1.98-.26.13-.13.22-.29.29-.45.33-.29.51-.71.36-1.3-.18-.72-.8-1.18-1.45-1.33-.08-.04-.18-.07-.29-.08-.22,0-.44,0-.65.03-.04-.02-.08-.04-.12-.05-.63-.17-1.46-.02-1.88.51-.33.25-.56.62-.56,1.13Z"/>
    <path class="cls-1" d="M31.27,45.82c.22.99.06,2.03-.63,2.72-.72.73-1.67.63-2.61.52-.94-.11-2.02-.38-2.21-1.55-.16-.99.08-2.16.16-3.15.09-.98-1.34-1.08-1.42-.1-.12,1.42-.52,3.23.22,4.56.76,1.35,2.2,1.67,3.52,1.81,1.32.13,2.57-.04,3.49-1.1.93-1.07,1.18-2.57.86-4.02-.22-.97-1.6-.67-1.38.31Z"/>
    <path class="cls-1" d="M52.38,44.54c-3.28-2.26-7.2-.5-10.05,1.41-1.5,1-3.02,2.09-4.35,3.33-1.22,1.13-2.17,2.53-2.27,4.34-.05.99,1.37,1.09,1.42.1.09-1.53,1.07-2.62,2.1-3.52,1.19-1.04,2.49-1.99,3.79-2.87,2.37-1.59,5.82-3.43,8.61-1.51.79.54,1.53-.73.74-1.28Z"/>
    <path class="cls-1" d="M41.02,33.75c.69.13,1.25.05,1.84.55.44.38.82.68,1.39.76,1.11.16,2.01-.56,2.4-1.62.39-1.06.52-2.5-.16-3.51-.48-.72-1.16-1.06-1.89-1.23-.34-.62-1.34-.8-1.99-.88-1.16-.14-2.38.04-3.19.96-1.43,1.61-.48,4.56,1.61,4.96ZM41.15,29.43c.36-.13.74-.12,1.12-.1.1,0,.2.03.29.04.02.36.23.7.66.72.66.02,1.52,0,2.02.59.43.51.3,1.33.14,1.92-.22.78-.79,1.24-1.5.69-.5-.38-.81-.74-1.43-.89-.54-.12-1.26,0-1.74-.36-.39-.29-.59-.89-.56-1.38.04-.63.47-1.06,1.01-1.24Z"/>
    <path class="cls-1" d="M14.25,42.25c-2.46-2-7.71-1.91-8.1,2.09-.1.98,1.33,1.08,1.42.1.14-1.36,1.81-1.94,2.88-1.99,1.26-.06,2.51.48,3.45,1.43.85.86,1.48,2.01,1.74,3.22.32,1.53-.65,2.83-1.28,4.07-.43.85.78,1.71,1.22.86.87-1.7,1.92-3.29,1.42-5.39-.42-1.73-1.41-3.32-2.74-4.41Z"/>
  </g>
</svg>