<?xml version="1.0" encoding="UTF-8"?>
<svg id="Layer_1" data-name="Layer 1" xmlns="http://www.w3.org/2000/svg" viewBox="0 0 225 36.99">
  <defs>
    <style>
      .cls-1 {
        fill: #4b2a6f;
        stroke-width: 0px;
      }
    </style>
  </defs>
  <g>
    <path class="cls-1" d="M60.21,35.25l-1.24-6.66h-7.11l-1.24,6.66h-8.48L50.15,1.1h10.32l8.12,34.14h-8.39ZM57.75,21.61l-1.33-7.64c-.15-.86-.29-1.69-.42-2.5-.13-.81-.24-1.58-.34-2.32-.1-.74-.18-1.43-.26-2.07-.06.61-.14,1.28-.24,2.01-.1.73-.21,1.5-.35,2.3-.14.8-.28,1.63-.43,2.49l-1.39,7.73h4.75Z"/>
    <path class="cls-1" d="M83.42,8.32c.3,0,.61.02.92.05.31.03.7.11,1.17.23l-.61,8.34c-.3-.11-.64-.19-1.01-.23-.38-.05-.8-.07-1.28-.07-.73,0-1.37.12-1.9.35-.53.23-.97.57-1.3,1.02-.34.44-.59,1-.75,1.66-.16.66-.25,1.43-.25,2.3v13.29h-7.47V8.79h5.71l1.08,4.23h.36c.3-.72.7-1.44,1.21-2.16.51-.72,1.11-1.33,1.81-1.81.7-.48,1.47-.72,2.31-.72Z"/>
    <path class="cls-1" d="M98.08,29.03c.46,0,.97-.08,1.52-.25.55-.16,1.13-.39,1.74-.67v6.12c-.82.48-1.69.85-2.6,1.1-.91.25-1.89.37-2.94.37-1.66,0-3.01-.33-4.05-.99-1.03-.66-1.79-1.67-2.27-3.04-.48-1.36-.72-3.08-.72-5.15v-11.37h-2.59v-4.11l3.24-2.01,1.75-5.56h5.06v5.3h4.79v6.38h-4.79v11.28c0,.86.15,1.5.45,1.94.3.44.76.65,1.39.65Z"/>
    <path class="cls-1" d="M119.31,27.12c0,1.9-.35,3.49-1.03,4.76-.69,1.28-1.68,2.23-2.98,2.87-1.3.64-2.86.96-4.69.96-1.24,0-2.47-.11-3.67-.33-1.2-.22-2.39-.6-3.58-1.14v-7.31c.93.58,1.95,1.08,3.07,1.51,1.12.43,2.25.64,3.39.64.69,0,1.21-.12,1.55-.36.34-.24.52-.63.52-1.18,0-.3-.07-.58-.21-.85-.14-.27-.48-.6-1.02-.99-.54-.39-1.4-.89-2.59-1.49-1.03-.54-1.9-1.21-2.61-2-.71-.79-1.24-1.69-1.6-2.7-.36-1.01-.54-2.14-.54-3.39,0-2.46.72-4.37,2.16-5.75,1.44-1.37,3.49-2.06,6.14-2.06,1.32,0,2.56.19,3.73.57,1.17.38,2.36.94,3.58,1.67l-1.82,5.89c-.76-.53-1.57-.99-2.43-1.38-.85-.39-1.72-.58-2.61-.58-.53,0-.91.1-1.17.3-.26.2-.38.51-.38.93,0,.28.07.54.21.77.14.23.47.53.98.88.51.35,1.3.86,2.38,1.53,1.03.59,1.94,1.27,2.72,2.03.78.76,1.39,1.65,1.83,2.65.44,1,.66,2.18.66,3.54Z"/>
    <path class="cls-1" d="M130.96,35.25h-7.83V1.1h15.74v6.89h-7.92v7.31h7.33v6.89h-7.33v13.06Z"/>
    <path class="cls-1" d="M151.84,8.37c2.02,0,3.76.47,5.2,1.4s2.54,2.3,3.29,4.09c.76,1.79,1.14,3.98,1.14,6.56v4.06h-12.17c0,1.77.36,3.06,1.07,3.87.71.8,1.8,1.2,3.27,1.2,1.17,0,2.26-.16,3.26-.47,1-.31,2.09-.84,3.26-1.59v6.33c-1.09.67-2.27,1.15-3.53,1.45-1.26.3-2.62.44-4.09.44-2.46,0-4.46-.52-6.02-1.55-1.55-1.04-2.7-2.57-3.43-4.59-.73-2.02-1.1-4.5-1.1-7.43s.37-5.46,1.11-7.51c.74-2.05,1.84-3.6,3.31-4.67,1.46-1.07,3.27-1.6,5.43-1.6ZM152.02,14.34c-.78,0-1.43.35-1.95,1.05-.52.7-.78,1.92-.78,3.64h5.26c0-1.12-.11-2.03-.31-2.72-.21-.69-.51-1.19-.89-1.51-.38-.31-.83-.47-1.34-.47Z"/>
    <path class="cls-1" d="M179.84,27.12c0,1.9-.35,3.49-1.03,4.76-.69,1.28-1.68,2.23-2.98,2.87-1.3.64-2.86.96-4.69.96-1.24,0-2.47-.11-3.67-.33-1.2-.22-2.39-.6-3.58-1.14v-7.31c.93.58,1.95,1.08,3.07,1.51,1.12.43,2.25.64,3.39.64.69,0,1.21-.12,1.55-.36.34-.24.52-.63.52-1.18,0-.3-.07-.58-.21-.85-.14-.27-.48-.6-1.02-.99-.54-.39-1.4-.89-2.59-1.49-1.03-.54-1.9-1.21-2.61-2-.71-.79-1.24-1.69-1.6-2.7-.36-1.01-.54-2.14-.54-3.39,0-2.46.72-4.37,2.16-5.75,1.44-1.37,3.49-2.06,6.14-2.06,1.32,0,2.56.19,3.73.57,1.17.38,2.36.94,3.58,1.67l-1.82,5.89c-.76-.53-1.57-.99-2.43-1.38-.85-.39-1.72-.58-2.61-.58-.53,0-.91.1-1.17.3-.26.2-.38.51-.38.93,0,.28.07.54.21.77.14.23.47.53.98.88.51.35,1.3.86,2.38,1.53,1.03.59,1.94,1.27,2.72,2.03.78.76,1.39,1.65,1.83,2.65.44,1,.66,2.18.66,3.54Z"/>
    <path class="cls-1" d="M193.15,29.03c.46,0,.97-.08,1.52-.25.55-.16,1.13-.39,1.74-.67v6.12c-.82.48-1.69.85-2.6,1.1-.91.25-1.89.37-2.94.37-1.66,0-3.01-.33-4.05-.99-1.03-.66-1.79-1.67-2.27-3.04-.48-1.36-.72-3.08-.72-5.15v-11.37h-2.59v-4.11l3.24-2.01,1.75-5.56h5.06v5.3h4.79v6.38h-4.79v11.28c0,.86.15,1.5.45,1.94.3.44.76.65,1.39.65Z"/>
    <path class="cls-1" d="M213.39,17.01h-9.41v-2.8l3.06-4.25c.68-.95,1.18-1.72,1.52-2.32.34-.6.56-1.11.67-1.51.11-.41.17-.8.17-1.18,0-.47-.1-.85-.31-1.12s-.53-.41-.96-.41c-.38,0-.76.13-1.13.38-.37.26-.81.73-1.31,1.43l-1.83-2.56c.49-.66.97-1.18,1.46-1.58.49-.39,1-.68,1.53-.85.53-.17,1.11-.26,1.74-.26.88,0,1.67.19,2.36.59s1.24.94,1.64,1.64.6,1.53.6,2.48c0,.65-.08,1.29-.23,1.91s-.43,1.3-.83,2.02c-.4.72-.99,1.56-1.75,2.51l-1.86,2.33v.11h4.88v3.43Z"/>
    <path class="cls-1" d="M225,8.65c0,1.21-.07,2.33-.22,3.38-.14,1.04-.39,1.96-.75,2.74s-.85,1.39-1.47,1.82c-.62.44-1.42.65-2.38.65-1.06,0-1.95-.32-2.66-.96-.71-.64-1.24-1.6-1.6-2.87-.36-1.27-.54-2.86-.54-4.76s.17-3.62.52-4.9c.35-1.28.87-2.22,1.59-2.83s1.61-.92,2.69-.92,1.96.32,2.67.97,1.25,1.61,1.61,2.89c.36,1.28.54,2.88.54,4.79ZM219.17,8.65c0,1.19.03,2.17.08,2.93s.15,1.32.29,1.67c.14.36.36.54.65.54s.52-.18.66-.54c.15-.36.25-.92.3-1.67.05-.76.08-1.73.08-2.93s-.03-2.13-.08-2.9c-.05-.77-.15-1.34-.3-1.73-.15-.38-.37-.57-.66-.57-.27,0-.48.19-.63.57-.15.38-.25.96-.3,1.73-.05.77-.08,1.73-.08,2.9Z"/>
    <path class="cls-1" d="M213.39,36.76h-9.41v-2.8l3.06-4.25c.68-.95,1.18-1.72,1.52-2.32.34-.6.56-1.11.67-1.51.11-.41.17-.8.17-1.18,0-.47-.1-.85-.31-1.12s-.53-.41-.96-.41c-.38,0-.76.13-1.13.38-.37.26-.81.73-1.31,1.43l-1.83-2.56c.49-.66.97-1.18,1.46-1.58.49-.39,1-.68,1.53-.85.53-.17,1.11-.26,1.74-.26.88,0,1.67.19,2.36.59s1.24.94,1.64,1.64.6,1.53.6,2.48c0,.65-.08,1.29-.23,1.91s-.43,1.3-.83,2.02c-.4.72-.99,1.56-1.75,2.51l-1.86,2.33v.11h4.88v3.43Z"/>
    <path class="cls-1" d="M220.9,25.76c.76,0,1.43.23,2.02.68.59.46,1.05,1.09,1.39,1.9.34.81.51,1.75.51,2.82,0,1.25-.2,2.3-.6,3.17-.4.87-1.01,1.53-1.83,1.97s-1.86.67-3.11.67c-.69,0-1.33-.07-1.92-.21-.59-.14-1.13-.36-1.64-.65v-3.58c.52.31,1.07.56,1.65.76s1.14.3,1.65.3c.42,0,.78-.09,1.07-.26.29-.17.51-.43.66-.77.15-.34.23-.77.23-1.27,0-.7-.18-1.25-.53-1.65-.35-.39-.88-.59-1.58-.59-.27,0-.55.03-.83.1-.28.07-.59.17-.91.3l-1.19-.83.48-8.66h7.6v3.45h-4.41l-.17,2.54c.32-.09.61-.15.86-.17.25-.02.45-.03.61-.03Z"/>
  </g>
  <g>
    <path class="cls-1" d="M17.98,3.92l-3.92,18.49c-.96,4.35-1.26,5.41-1.87,6.53-.46.76-1.21,1.21-2.07,1.21-1.42,0-2.33-.86-2.33-2.23,0-.61.25-2.33.61-3.85L13.16,1.62H5.11L.61,22.82c-.4,2.07-.61,3.64-.61,5.16,0,2.32.55,4.15,1.67,5.36,1.67,1.82,4.81,2.88,8.6,2.88s6.48-1.06,8.25-3.34c1.17-1.47,2.23-4.4,2.99-7.9l3.69-17.38-7.21-3.69Z"/>
    <path class="cls-1" d="M33.83,2.93c-1.26-.73-3.8-1.26-6.27-1.31h0s-11.65,0-11.65,0c0,0,11.09,5.23,12.92,6.83l.04.04c.43.47.61,1.18.61,2.18,0,2.79-1.92,12.35-3.14,15.49-.89,2.33-2.03,3.05-4.88,3.09-.54,1.61-1.24,3.22-2.1,4.31-.55.71-1.18,1.31-1.88,1.82h4.82c2.98,0,4.86-.3,6.43-.96,3.04-1.37,4.91-4.5,6.48-10.68.96-3.95,2.13-11.44,2.13-13.92,0-2.94-1.36-5.62-3.49-6.88"/>
  </g>
</svg>