<?xml version="1.0" encoding="UTF-8"?>
<svg id="Layer_1" data-name="Layer 1" xmlns="http://www.w3.org/2000/svg" version="1.1" viewBox="0 0 561.7 612">
  <defs>
    <style>
      .cls-1, .cls-2, .cls-3, .cls-4 {
        stroke: #4b2a6f;
        stroke-miterlimit: 10;
      }

      .cls-1, .cls-2, .cls-4 {
        stroke-width: 2px;
      }

      .cls-1, .cls-5 {
        fill: #fff;
      }

      .cls-6 {
        fill: #000;
      }

      .cls-6, .cls-7, .cls-8, .cls-5, .cls-9 {
        stroke-width: 0px;
      }

      .cls-10 {
        isolation: isolate;
      }

      .cls-2, .cls-7 {
        fill: #a6a6a6;
      }

      .cls-8 {
        fill: #4b2a6f;
      }

      .cls-3 {
        fill: none;
      }

      .cls-4 {
        fill: #bfbfbf;
      }

      .cls-9 {
        fill: #ca2c61;
      }
    </style>
  </defs>
  <path class="cls-1" d="M505,218.7c-18.9-18.9-38.2-37.9-56.8-56.6-9.4-10.1,15.4-18.1,14.9-27.6-1-5.3-8.3-12-12.9-6.4-9.8,8.2-19.7,22.3-30.5,28.5-25.2,5.1-25.6-6.4-42.5-18.8-4.9-1.6-8,4.3-12,6.3-8,3-22,4.3-28.6-2.9-26.5-25.3-54.7-56.6-83.7-82.3-4.1-1.8-10.3,4.6-10.3,8.7,3.2,9,15.3,16.2,21.3,23.7,11.8,11.6,39.8,39.7,51.1,51,5.9,5.4-3,10.1-6.5,14.4-6.1,6.1-13.6,14.1-19.9,19.5-8,6.2-11.2-11.6-20.9-1.2-8.3,9,8,16.1,12.5,22.8,6.5,6-.9,10.1-5.4,14.9-69.5,69.2-139.3,138.8-209,208.2-6.7,5-3.9,12.7,3.5,15.2,2.6.6,4.8-1.1,6.6-2.8,19.7-19.1,38.7-39.3,59.2-58.5,6.6-4.2,12.2,7,16.9,10.4,5.1,4.4,8.8,9.4,3,14.2-11.5,11.6-23.3,23.1-34.8,34.8-2.7,2.6-3.2,6.3-.3,9,22.5,23.3,21.2,13.7-6.7,43-27.3,27.2-54.5,54.3-81.4,81.1-9.2,6.4.3,17.8,7.3,14.5,10.5-8.5,19.4-19.1,29.3-28.4,24.8-24.7,26-28.4,50.7-53,2.5-2.5,5.7-5.5,9.2-2.9,6.6,3.8,13.7,18.2,21.6,16.1,5.1-2.3,29.7-34.1,35.4-27.6,24.7,24.6,84.7,84.5,97.8,97.3,2.6,2.8,7-3.5,9.1-5.2,10.1-10.2,24.6-24.1,34.8-35,3.4-4.9-3.4-8.8-6.5-12.4-3.1-3.5-9.4-8.1-10.5-12,0-7.1,18.3-20,23.1-26.4,1.6-1.4,3-2.8,4.3-4.1,9.3-9.4,11.3-17.6,19.4-11.8l1.5,1.1-16.5-15.9c-5,5.1-10.1,10.1-15.3,15.2-8.5,8.3-17,16.6-25,25.4-6.6,7.4-9.5,1.2-14.7-3.7-12.5-12.8-27-27.5-38.9-39.6-5.3-5.5-10.9-11.1-16.3-16.6-4.9-4.8-2.2-7.5,1.7-11.5,5.1-4.3,9.9-12.2,16.1-14.4,3.5-.3,5.9,3.4,8.3,5.6,10.2,10.4,21.7,22.2,31.9,32.6,2.5,2.8,6,5.5,9.5,2.7,13-12.1,24.8-25.3,37.6-37.8,1-1.2,2.2-2.1,3.5-2.5.6-.2,1.2-.3,1.9-.3,1.4,0,2.8-.8,3.7-1.8l28.3-33.3,2.8-1.8c-2.3.9-4.6.4-7.9-3.1l-.2-.2c-11.7-11.9-23.7-23.1-35-35.2-8.1-9.6,1.3-22.6-9.8-31.9-22-15.6-16.7,10.1-48.1-25.5-22.7-25.7-33-18.6-6.5-43.3,14.6-14.5,42.2-42.2,57-56.6,4.3-4.6,8.2,1.6,12.1,4,7.3,4,14.8-10.2,20.3-13.9,10.7-8.9,17.2,12.2,26.7,14.6,4.6.9,7.3-4.9,11.6-5.5,4.6-.8,7.2,5.1,11.6,5.6,7.3-1,11.7-9.9,17.3-14.1,7.5-9.2,15.1,4.9,21,9.5,15.1,14.9,31.2,31.1,46.6,46.4,7,9.2,20.6-4.9,11-11.5h0l.4-.4ZM263.4,291.2c14.9,15.2,30.6,30.6,45.3,46,27.5,29.4-11.4,72.4-43.3,48.1-5.2-1.8-8.7,4.7-12.2,7.6-10.8,10.7-21.3,22-32.4,32.5-4.5,4-8.8-2.2-11.9-5.2-11.5-11.7-22.8-23.1-34.4-34.8-5.4-5.5-10.6-10.7-16.1-16.3-3.7-3.8-10.2-8.7-4.4-13.8,20-20.5,42.1-42.6,61.9-62.7,27.6-26.6,19.1-30.8,47.5-1.5h0Z"/>
  <g>
    <path class="cls-4" d="M227.9,437.2c-3-1-11.5-5.9-8.3-9.4,10.9-11.6,31.9-35.3,40.2-42.9,2-1.8,4-1.5,6-.2,22,18.2,57-2.9,51.6-30.8-3.9-19.8-34.8-40.9-48.6-57.3-5.4-4.9-4.6-8.6,1.1-13.4,10-7.4,18.9,16.3,28.9,18,7,1.9,15.8-1.2,22.2,2.6,11.2,8.1,10.4,12.3,10.2,25.1,0,3.7.2,7.4,2.9,10,8.2,9.3,28,27.9,38.9,39.2,3.3,3.2,2.2,5.9-1,8.9-24.3,23.1-49,51.6-74.5,73.3-2,.3-3.5-.9-4.8-2.2-12.2-12.1-25-25.1-37.2-37.2-7.3-10.6-19.5,16.9-27.7,16.4h0Z"/>
    <path class="cls-1" d="M139.9,460.2c-3.9-7.4-12-12.7-17.5-19.2-3.2-3.6-6.2-4-9.6-.2-3.6,5.7-22.9,17.2-15.6,23.2,5.5,5.6,11.4,11.9,17.2,17.4,2.9,2.6,5.6,1,7.9-1.5,5.4-6.6,14.2-12,17.6-19.6h0Z"/>
    <path class="cls-1" d="M83.9,538.8c3.9,7.4,12,12.7,17.5,19.2,3.2,3.6,6.2,4,9.6.2,3.6-5.7,22.9-17.2,15.6-23.3-6.1-4.1-18.2-25.6-25.2-15.7-5.4,6.6-14.1,11.9-17.5,19.5h0Z"/>
    <path class="cls-1" d="M252.3,58.3c5.3-5.3,11.8-11.9,17.7-17.7,3.2-3,5.3-6,1.7-9.8-4.6-3.1-17.9-23.2-22.8-15.9-10.7,11.3-44.8,43.4-53.4,54-1.4,3,7.1,9.2,9.4,12,3.4,3,8.2,9.5,11.8,10.3,2.5.3,4.5-1.9,6.2-3.5,8.9-8.9,20.5-20.5,29.4-29.4h0Z"/>
    <path class="cls-1" d="M240.2,69.1c-8.9,5.4-16.4,15.9-24.3,22.7-2.6,3.3-11.6,8.9-8.1,13.4,7.2,7.8,19.1,19,27.7,27.7,3.2,3.3,5.4,4.7,9.1.9,8.9-8.8,18.4-18.2,27.3-27,3-2.9,2.8-5.6-.2-8.4-8.8-8.8-18.1-18-27-26.8-1.2-1.2-2.7-2.6-4.3-2.4h-.2Z"/>
    <path class="cls-1" d="M274.1,80.4c7.4-3.9,12.9-12.2,19.3-17.6,3.6-3.3,3.9-5.9.3-9.3-5.2-5.2-10.9-10.8-16.1-15.8-6-7.2-17.6,12.1-23.2,15.6-3.7,3.3-3.4,6.3.2,9.6,6.6,5.4,11.9,14,19.5,17.5h0Z"/>
    <path class="cls-1" d="M296.5,102.7c7.4-3.9,12.7-12,19.2-17.5,3.6-3.2,4-6.2.2-9.6-5.7-3.6-17.2-22.9-23.3-15.6-4.1,6.1-25.6,18.2-15.7,25.2,6.6,5.4,11.9,14.1,19.5,17.5h0Z"/>
    <path class="cls-1" d="M341.4,147.3c7.3,1.1,16.8,1.7,23.6-.7,3.9-2.8,13.4-8.9,7.6-13.9-6.5-6.3-20.8-20.3-27.9-27.1-2.3-2.8-5.6-2.9-7.9,0-3.6,3.5-9.5,9.3-13.9,13.5-3.5,3.2-6.2,6.3-1.8,10.1,6,5.1,12.8,14.2,20.3,18.3h0v-.2Z"/>
    <path class="cls-1" d="M287.7,115.6c-1.6-1.1-3.7-1.1-5.3,0-5.9,4-10.4,10.7-15.9,15.3-24.4,22.8-16,14,12.6,45.4,6,6.1,6.3,6.2,12.3,0,8.5-8.8,18.6-17.5,26.8-26.9,2.3-5.1-4.8-8.3-7.4-11.8-7.9-6.6-14.5-16.3-23-22h-.1Z"/>
    <path class="cls-1" d="M341.2,460.4c7.4-3.9,12.9-12.2,19.3-17.6,3.6-3.3,3.9-5.9.3-9.3-5.5-3.5-16.3-21.8-23.4-15.8-6,5.1-11.9,11.4-17.3,17.2-2.6,2.9-1,5.5,1.5,7.9,6.6,5.4,12,14.2,19.6,17.6h0Z"/>
    <path class="cls-2" d="M327.5,324c0,8.4,3,16.4,8.8,22.4,10.5,11,24.1,21.9,33.5,32,5.5,6.3,9.4-1.5,14.4-4,7.8-4,20.8-4.9,27.5,2,11.5,11.3,31.1,31.3,38.9,38.7,3.6,2.5,8-4.5,10.6-6.5,13.9-14.6,37.9-36.4,46.7-47.5.4-1.4-.5-2.7-1.5-3.7-7.1-7.1-26.8-26.7-37.9-37.9-6.8-6.6-5.1-19.3-3-27.4,1.8-4.4,7.9-6.7,7.9-11.8-6.1-9.3-21.6-22.4-28.9-30.1-4.5-4.5-8.4,3.2-12.3,5.3-2.5,1.6-4.6.4-6.3-1.4-8-7.8-18.6-18.7-26.3-26.2-1.8-1.6-4.4-3.5-6.2-1.1-10.2,12.7-59.1,54.2-75.1,77.5.5,2.1,3.4,4.5,5.5,6.8,3.6,3.5,3.7,6.9,3.7,11.6v1.3Z"/>
    <path class="cls-2" d="M464,314.3c9.4,12.9,29.6,30.5,39.1,41.1,3,3.2,5.8,6.2,9.7,2.3,5.6-6.1,12.7-11.7,17.2-18.4,1-2.6-1.3-4.5-3-6.2-12.4-12.6-40.4-41.4-50.1-51-2.1-1.9-4.7.3-6.4,1.9-9.4,6.9-8.1,20.5-6.5,30.3h0Z"/>
    <path class="cls-1" d="M374.5,136.9c4.1,7.1,13.6,14.6,19.9,20.2,7.2,3.2,19.5,3.1,26.4,0,15.9-14.7,35.5-34.6,51.8-50.3,3.1-2.9,3.4-5.6,0-8.7-7.2-7.2-16-15.6-23.1-22.6-2.2-1.8-6.1-7.2-8.8-5.6-10.5,11.6-52.4,47.3-66.3,66.8h0v.2Z"/>
    <path class="cls-1" d="M489.2,201c7.3-3.7,12.4-11.8,18.7-17.1,4-3.7,4.5-6.9.4-10.7-5.4-5.2-10.7-11.2-16.7-16.1-6.5-4-17.4,13.5-22.9,17.2-3.2,3.1-2.4,6,.7,8.8,6.7,5.5,12,14.4,19.8,17.8h0Z"/>
    <path class="cls-1" d="M195.6,359.7c-7.4,3.9-12.9,12.2-19.3,17.6-3.6,3.3-3.9,5.9-.3,9.3,5.5,3.5,17.6,23.1,23.4,15.8,5.6-5.5,11.9-11.4,17.3-17.2,2.6-2.9,1-5.5-1.5-7.9-6.6-5.4-12-14.2-19.6-17.6h0Z"/>
    <path class="cls-1" d="M318.9,125.1c7.4-3.9,12.9-12.2,19.3-17.6,3.6-3.3,3.9-5.9.3-9.3-5.5-3.5-17.6-23.1-23.4-15.8-5.6,5.5-11.9,11.4-17.3,17.2-2.6,2.9-1,5.6,1.5,7.9,6.6,5.4,12,14.2,19.6,17.6Z"/>
    <path class="cls-4" d="M217.2,336.7c-3.8,5.9-27.1,21.3-18.5,27.7,9.4,9.8,20.7,21.1,30.3,31,4.5,4.6,10.7,13.3,16.6,5.5,6.1-4.2,14.1-20.6,22.2-13.8,31,22.2,68.3-22.3,40.6-50.5-10.5-11.1-21.4-21.8-32-32.7-4.7-3.4-9.7-14.3-16.4-10.5-14,13.1-28.7,29.2-42.9,43.2h0Z"/>
    <path class="cls-3" d="M216.1,292.7c-19.8,20.1-41.9,42.2-61.9,62.7-5.8,5.1.7,10,4.4,13.8,5.5,5.6,10.7,10.8,16.1,16.3,11.6,11.7,22.9,23.1,34.4,34.8,3.1,3,7.4,9.1,11.9,5.2,11.1-10.5,21.6-21.8,32.4-32.5,3.4-2.9,7-9.4,12.2-7.6,31.9,24.3,70.7-18.7,43.3-48.1-14.7-15.4-30.5-30.8-45.3-46-28.3-29.4-19.8-25.2-47.5,1.5h0Z"/>
    <path class="cls-3" d="M216.1,292.7c-19.8,20.1-41.9,42.2-61.9,62.7-5.8,5.1.7,10,4.4,13.8,5.5,5.6,10.7,10.8,16.1,16.3,11.6,11.7,22.9,23.1,34.4,34.8,3.1,3,7.4,9.1,11.9,5.2,11.1-10.5,21.6-21.8,32.4-32.5,3.4-2.9,7-9.4,12.2-7.6,31.9,24.3,70.7-18.7,43.3-48.1-14.7-15.4-30.5-30.8-45.3-46-28.3-29.4-19.8-25.2-47.5,1.5h0Z"/>
    <path class="cls-2" d="M345.6,419.4l.2.3c.5.8,4.9,4.1,5.2,4.3.6.4,5.5,5.4,6.1,6.1,4.1,5,2.3,2.7,4.3,4.9s1.3,3.4.2,4.8c-6.1,7.6-12.6,14.7-19.4,21.6l16.1,16.3h0c2.5,1.8,5.6,4.8,9.4,9.4,2.5,2.3,5.1,5.8,8.8,5.3,21.4-16,47.6-47.3,73.5-71.3,1.5-1.5,3.3-3.9,2.9-5.7-7.5-10.4-23.7-23.8-35.4-36.4-2.6-2.5-5-5.4-8.4-6.7-20.5-5.4-21.2,1.8-26.8,3.9l-7.8,4.9-32.1,35.1,3.2,3.1h0Z"/>
    <path class="cls-1" d="M118.3,391.9c-7.4,3.9-12.7,12-19.2,17.5-3.6,3.2-4,6.2-.2,9.6,5.7,3.5,17.2,22.9,23.2,15.6,5.6-5.5,11.8-11.4,17.3-17.2,2.6-2.9,1-5.5-1.5-7.9-6.6-5.4-12-14.2-19.6-17.6h0Z"/>
  </g>
  <g>
    <path class="cls-5" d="M220.4,428.1l-2-.4s-2.3,3.1-.4,6.5c1.8,3.1,7.4,6.8,7.3,6.9,0,.1,2.8-2.3,2.8-2.3,0,0,.3-1.7.2-2.5,0-.1-7.7-8-7.7-8h0c0,0-.2-.2-.2-.2Z"/>
    <polygon class="cls-5" points="271.8 281 274.2 282.8 267.2 293.2 264.1 290.3 263 281.2 271.8 281"/>
    <polygon class="cls-7" points="372.7 381.6 375.1 381.9 376 382.3 344.4 416.5 341.6 415.6 372.7 381.6"/>
    <polygon class="cls-7" points="343.6 461.3 342 462.7 340.1 464.7 352.6 473.5 357.1 474.9 343.6 461.3"/>
    <polygon class="cls-7" points="414.5 366.2 406.5 379.8 389.4 375.9 387.9 362.3 414.5 366.2"/>
    <polygon class="cls-7" points="458.2 289.8 471.7 297.8 467.8 314.9 454.2 316.4 458.2 289.8"/>
  </g>
  <g>
    <path class="cls-8" d="M253.3,348.9c-.6,0-1.2-.1-1.6-.4s-.8-.7-1.1-1.2-.4-1.1-.4-1.8.1-1.3.4-1.8c.2-.5.6-.9,1.1-1.2s1-.4,1.6-.4,1.4.2,1.9.6.8,1,.9,1.7h-1.3c0-.4-.2-.6-.5-.8s-.6-.3-1-.3-.7,0-1,.3c-.3.2-.5.4-.6.8s-.2.7-.2,1.2,0,.9.2,1.2.3.6.6.8c.3.2.6.3,1,.3s.7,0,1-.3c.2-.2.4-.4.5-.8h1.3c-.1.7-.4,1.2-.9,1.6s-1.1.6-1.9.6h0Z"/>
    <path class="cls-8" d="M260.7,348.9c-.6,0-1.1-.1-1.6-.4s-.8-.7-1.1-1.2-.4-1.1-.4-1.8.1-1.3.4-1.8.6-.9,1.1-1.2c.5-.3,1-.4,1.6-.4s1.2.1,1.6.4c.5.3.8.7,1.1,1.2s.4,1.1.4,1.8-.1,1.3-.4,1.8-.6.9-1.1,1.2c-.5.3-1,.4-1.6.4ZM260.7,347.8c.4,0,.7,0,1-.3.3-.2.5-.4.6-.8s.2-.7.2-1.2,0-.9-.2-1.2c-.1-.3-.4-.6-.6-.8s-.6-.3-1-.3-.7,0-1,.3-.5.4-.6.8-.2.7-.2,1.2,0,.9.2,1.2.4.6.6.8.6.3,1,.3Z"/>
    <path class="cls-8" d="M268,348.9c-.5,0-.9-.1-1.3-.3s-.7-.5-.9-.9c-.2-.4-.3-.9-.3-1.5v-4h1.2v4c0,.3,0,.6.2.8.1.2.2.4.5.5.2.1.4.2.7.2s.5,0,.7-.2c.2-.1.3-.3.5-.5s.1-.5.1-.8v-4h1.2v4c0,.6-.1,1.1-.3,1.5-.2.4-.5.7-.9.9-.4.2-.8.3-1.3.3h-.1Z"/>
    <path class="cls-8" d="M272.4,348.8v-6.5h2.4c.5,0,.9,0,1.3.3s.6.4.7.7.2.6.2,1,0,.7-.2,1-.4.5-.7.7c-.3.2-.8.3-1.3.3h-1.1v2.6h-1.3ZM273.6,345.3h1.1c.4,0,.6,0,.8-.3.2-.2.3-.4.3-.7s0-.5-.3-.7c-.2-.2-.5-.3-.8-.3h-1.1v2h0ZM275.6,348.8l-1.3-2.9h1.3l1.4,2.9h-1.4Z"/>
    <path class="cls-8" d="M280.2,348.8v-5.5h-1.8v-1h4.9v1h-1.8v5.5h-1.3Z"/>
    <path class="cls-8" d="M284.4,346.6v-1.1h3.8v1.1h-3.8Z"/>
    <path class="cls-8" d="M259.2,360.1v-2.3l-2.1-4.2h1.4l1.5,3.2h-.2l1.5-3.2h1.4l-2.1,4.2v2.3h-1.4Z"/>
    <path class="cls-8" d="M262.9,360.1l2.3-6.5h1.4l2.3,6.5h-1.3l-1.7-5.1-1.7,5.1h-1.3,0ZM263.9,358.6l.3-1h3.2l.3,1h-3.9.1Z"/>
    <path class="cls-8" d="M270.3,360.1v-6.5h2.4c.5,0,.9,0,1.3.3s.6.4.7.7.2.6.2,1,0,.7-.2,1-.4.5-.7.7c-.3.2-.8.3-1.3.3h-1.1v2.6h-1.3ZM271.5,356.6h1.1c.4,0,.6,0,.8-.3s.3-.4.3-.7,0-.5-.3-.7c-.2-.2-.5-.3-.8-.3h-1.1v2h0ZM273.6,360.1l-1.3-2.9h1.3l1.4,2.9h-1.4Z"/>
    <path class="cls-8" d="M276.7,360.1v-6.5h2.1c.7,0,1.3.1,1.8.4s.8.6,1.1,1.1c.2.5.4,1.1.4,1.7s-.1,1.2-.4,1.7c-.2.5-.6.9-1.1,1.1s-1.1.4-1.8.4h-2.1ZM277.9,359h.8c.5,0,.9,0,1.2-.3s.5-.4.6-.8c.1-.3.2-.7.2-1.2s0-.9-.2-1.2c-.1-.3-.3-.6-.6-.8s-.7-.3-1.2-.3h-.8v4.4h0v.2Z"/>
  </g>
  <g>
    <path class="cls-8" d="M383,323.8v-6.5h2.4c.5,0,.9,0,1.3.3s.6.4.8.7.2.7.2,1,0,.7-.2,1-.4.6-.7.8-.8.3-1.3.3h-1.1v2.5h-1.4ZM384.2,320.3h1.1c.4,0,.7,0,.9-.3s.3-.4.3-.8,0-.6-.3-.7c-.2-.2-.5-.3-.9-.3h-1.1v2h0Z"/>
    <path class="cls-8" d="M389.2,323.8v-6.5h4.2v1h-2.9v1.7h2.7v1h-2.7v1.8h2.9v1h-4.2Z"/>
    <path class="cls-8" d="M395.1,323.8v-6.5h2.4c.5,0,.9,0,1.3.3s.6.4.7.7.2.6.2,1,0,.7-.2,1-.4.5-.7.7c-.3.2-.8.3-1.3.3h-1.1v2.6h-1.3ZM396.4,320.3h1.1c.4,0,.6,0,.8-.3s.3-.4.3-.7,0-.5-.3-.7c-.2-.2-.5-.3-.8-.3h-1.1v2h0ZM398.4,323.8l-1.3-2.9h1.3l1.4,2.9h-1.4Z"/>
    <path class="cls-8" d="M401.5,323.8v-6.5h4.1v1h-2.9v1.8h2.3v1h-2.3v2.8h-1.2Z"/>
    <path class="cls-8" d="M410.1,323.9c-.6,0-1.1-.1-1.6-.4s-.8-.7-1.1-1.2c-.3-.5-.4-1.1-.4-1.8s.1-1.3.4-1.8.6-.9,1.1-1.2,1-.4,1.6-.4,1.2.1,1.6.4.8.7,1.1,1.2.4,1.1.4,1.8-.1,1.3-.4,1.8-.6.9-1.1,1.2-1,.4-1.6.4ZM410.1,322.8c.4,0,.7,0,1-.3.3-.2.5-.4.6-.8s.2-.7.2-1.2,0-.9-.2-1.2-.4-.6-.6-.8-.6-.3-1-.3-.7,0-1,.3-.5.4-.6.8-.2.7-.2,1.2,0,.9.2,1.2.4.6.6.8.6.3,1,.3Z"/>
    <path class="cls-8" d="M414.9,323.8v-6.5h2.4c.5,0,.9,0,1.3.3s.6.4.7.7.2.6.2,1,0,.7-.2,1-.4.5-.7.7c-.3.2-.8.3-1.3.3h-1.1v2.6h-1.3ZM416.1,320.3h1.1c.4,0,.6,0,.8-.3s.3-.4.3-.7,0-.5-.3-.7c-.2-.2-.5-.3-.8-.3h-1.1v2h0ZM418.2,323.8l-1.3-2.9h1.3l1.4,2.9h-1.4Z"/>
    <path class="cls-8" d="M421.3,323.8v-6.5h1.5l1.9,4.1,1.9-4.1h1.5v6.5h-1.2v-4.4l-1.7,3.5h-1l-1.7-3.5v4.4h-1.2,0Z"/>
    <path class="cls-8" d="M430,323.8v-6.5h1.2v6.5h-1.2Z"/>
    <path class="cls-8" d="M433.1,323.8v-6.5h1.2l2.9,4.5v-4.5h1.2v6.5h-1.2l-2.9-4.5v4.5h-1.2Z"/>
    <path class="cls-8" d="M443.1,323.9c-.6,0-1.1-.1-1.6-.4s-.8-.7-1-1.2-.4-1.1-.4-1.8.1-1.3.4-1.8.6-.9,1.1-1.2c.5-.3,1-.4,1.7-.4s1.4.2,1.9.5.8.9,1,1.5h-1.4c0-.3-.3-.5-.5-.7s-.6-.2-1-.2-.8,0-1,.3c-.3.2-.5.5-.6.8s-.2.7-.2,1.2,0,.9.2,1.2.4.6.6.8c.3.2.6.3,1,.3s1-.2,1.3-.5.5-.7.5-1.2h-1.5v-1h2.8v3.6h-1.1v-.8c-.2.2-.4.4-.6.5s-.4.2-.6.3-.5.1-.8.1h-.2Z"/>
    <path class="cls-8" d="M402.6,335l2.3-6.5h1.4l2.3,6.5h-1.3l-1.7-5.1-1.7,5.1h-1.3,0ZM403.7,333.5l.3-1h3.2l.3,1h-3.9.1Z"/>
    <path class="cls-8" d="M410.1,335v-6.5h2.4c.5,0,.9,0,1.3.3s.6.4.7.7.2.6.2,1,0,.7-.2,1-.4.5-.7.7c-.3.2-.8.3-1.3.3h-1.1v2.6h-1.3ZM411.4,331.5h1.1c.4,0,.6,0,.8-.3s.3-.4.3-.7,0-.5-.3-.7c-.2-.2-.5-.3-.8-.3h-1.1v2h0ZM413.4,335l-1.3-2.9h1.3l1.4,2.9h-1.4Z"/>
    <path class="cls-8" d="M418,335v-5.5h-1.8v-1h4.9v1h-1.8v5.5h-1.3Z"/>
    <path class="cls-8" d="M424.7,335.1c-.5,0-.9,0-1.2-.2s-.6-.4-.8-.7c-.2-.3-.3-.7-.3-1.1h1.3c0,.2,0,.4.1.5,0,.2.2.3.4.4s.4.1.6.1.4,0,.5-.1l.3-.3c0,0,.1-.3.1-.4s0-.3-.1-.5c0-.1-.2-.2-.4-.3-.1,0-.3-.2-.5-.2s-.4-.1-.6-.2c-.5-.2-.9-.4-1.1-.7-.3-.3-.4-.6-.4-1.1s0-.7.3-1,.4-.5.8-.6c.3-.1.7-.2,1.1-.2s.8,0,1.1.2c.3.1.6.4.8.7s.3.6.3,1h-1.3c0-.1,0-.3-.1-.4,0-.1-.2-.2-.3-.3s-.3-.1-.5-.1h-.4c-.1,0-.2.1-.3.2s-.1.2-.1.4,0,.3.1.4c0,.1.2.2.3.3s.3.1.5.2.4.1.6.2c.3.1.6.2.9.4s.5.4.6.6.2.6.2,1,0,.7-.3,1c-.2.3-.4.5-.8.7s-.7.3-1.2.3h0l-.2-.2Z"/>
    <path class="cls-8" d="M399.2,346.4c-.6,0-1.2-.1-1.6-.4s-.8-.7-1-1.2-.4-1.1-.4-1.8.1-1.3.4-1.8c.2-.5.6-.9,1-1.2s1-.4,1.6-.4,1.4.2,1.9.6.8,1,.9,1.7h-1.3c0-.4-.2-.6-.5-.8s-.6-.3-1-.3-.7,0-1,.3c-.3.2-.5.4-.6.8-.1.3-.2.7-.2,1.2s0,.9.2,1.2c.1.3.3.6.6.8s.6.3,1,.3.7,0,1-.3.4-.4.5-.8h1.3c-.1.7-.4,1.2-.9,1.6s-1.1.6-1.9.6h0Z"/>
    <path class="cls-8" d="M403.7,346.3v-6.5h4.2v1h-2.9v1.7h2.7v1h-2.7v1.8h2.9v1h-4.2Z"/>
    <path class="cls-8" d="M409.7,346.3v-6.5h1.2l2.9,4.5v-4.5h1.2v6.5h-1.2l-2.9-4.5v4.5h-1.2Z"/>
    <path class="cls-8" d="M418.4,346.3v-5.5h-1.8v-1h4.9v1h-1.8v5.5h-1.3Z"/>
    <path class="cls-8" d="M423,346.3v-6.5h4.2v1h-2.9v1.7h2.7v1h-2.7v1.8h2.9v1h-4.2Z"/>
    <path class="cls-8" d="M428.9,346.3v-6.5h2.4c.5,0,.9,0,1.3.3s.6.4.7.7.2.6.2,1,0,.7-.2,1-.4.5-.7.7c-.3.2-.8.3-1.3.3h-1.1v2.6h-1.3ZM430.1,342.8h1.1c.4,0,.6,0,.8-.3s.3-.4.3-.7,0-.5-.3-.7c-.2-.2-.5-.3-.8-.3h-1.1v2h0ZM432.2,346.3l-1.3-2.9h1.3l1.4,2.9h-1.4Z"/>
  </g>
  <g>
    <path class="cls-8" d="M324,166.1v-5.5h-1.8v-1h4.9v1h-1.8v5.5h-1.3Z"/>
    <path class="cls-8" d="M332.7,166.1l-1.6-6.6h1.3l1.1,5.1,1.3-5.1h1.4l1.2,5.1,1.1-5.1h1.3l-1.7,6.6h-1.5l-1.2-4.8-1.2,4.8h-1.5,0Z"/>
    <path class="cls-8" d="M341.3,166.1v-6.6h1.2v6.6h-1.2Z"/>
    <path class="cls-8" d="M344.4,166.1v-6.6h1.2l2.9,4.5v-4.5h1.2v6.6h-1.2l-2.9-4.5v4.5h-1.2Z"/>
    <path class="cls-8" d="M354.4,166.2c-.6,0-1.1-.1-1.6-.4-.5-.3-.8-.7-1-1.2s-.4-1.1-.4-1.8.1-1.3.4-1.8.6-.9,1.1-1.2,1-.4,1.7-.4,1.4.2,1.9.6.8.9,1,1.5h-1.4c0-.3-.3-.5-.5-.7s-.6-.2-1-.2-.8,0-1,.3c-.3.2-.5.4-.6.8s-.2.7-.2,1.2,0,.9.2,1.2.4.6.6.8c.3.2.6.3,1,.3s1-.2,1.3-.5.5-.7.5-1.2h-1.5v-.9h2.8v3.6h-1.1v-.8c-.2.2-.4.4-.6.5l-.6.3c-.2.1-.5.1-.8.1h-.2Z"/>
  </g>
  <g>
    <path class="cls-8" d="M205.9,470.9l6.3-3,1,1-3,6.3-.9-.9,2.4-4.8-4.8,2.4-.9-.9h-.1ZM207.7,470.5l.9-.5,2.3,2.3-.5.9-2.7-2.7h0Z"/>
    <path class="cls-8" d="M214.1,479l3.5-5.8.9.9-2.8,4.4,4.5-2.7,1,1-2.7,4.5,4.4-2.8.9.9-5.8,3.4-1-1,2.5-4.2-4.3,2.5-1-1h0Z"/>
    <path class="cls-8" d="M220.1,485.1l4.6-4.6.9.9-4.6,4.6-.9-.9Z"/>
    <path class="cls-8" d="M222.4,487.3l4.6-4.6.9.9-1.1,5.2,3.2-3.2.9.9-4.6,4.6-.9-.9,1.1-5.2-3.2,3.2-.9-.9h0Z"/>
    <path class="cls-8" d="M229.4,494.5c-.4-.4-.7-.9-.8-1.4s0-1,0-1.6.5-1,1-1.5,1-.8,1.5-1,1.1-.2,1.6,0,1.1.4,1.5.9c.5.5.8,1.1.9,1.7,0,.6,0,1.2-.4,1.8l-1-1c.1-.3.2-.5.1-.8,0-.3-.2-.6-.5-.9s-.6-.5-.9-.5h-1c-.3.1-.7.4-1,.7-.3.3-.6.7-.7,1-.1.3-.2.7,0,1,0,.3.2.6.5.9.4.4.8.6,1.2.6s.8-.2,1.2-.5l-1.1-1.1.7-.7,2,2-2.6,2.6-.8-.8.5-.7h-.7c-.2,0-.4-.1-.7-.2s-.4-.3-.6-.5h.1Z"/>
  </g>
  <g>
    <path class="cls-8" d="M78.7,536.5c-.4.4-.9.7-1.4.8s-1.1,0-1.6,0-1-.5-1.5-1-.8-1-1-1.5-.2-1.1,0-1.6c0-.5.4-1,.8-1.5.5-.5,1.1-.8,1.8-.9.6,0,1.2,0,1.8.5l-.9.9c-.3-.2-.6-.3-.9-.2-.3,0-.6.2-.9.5s-.4.6-.5.9,0,.6,0,1c0,.3.4.7.7,1,.3.3.7.6,1,.7s.7.2,1,0c.3,0,.6-.2.9-.5s.4-.6.5-.9,0-.6-.2-.9l.9-.9c.4.6.6,1.2.5,1.8s-.4,1.2-.9,1.7h-.2Z"/>
    <path class="cls-8" d="M84.6,530.4l-5.8-3.5.9-.9,4.4,2.8-2.7-4.5,1-1,4.5,2.7-2.8-4.4.9-.9,3.4,5.8-1,1-4.2-2.5,2.5,4.3-1,1h-.1Z"/>
    <path class="cls-8" d="M90.7,524.3l-4.6-4.6.9-.9,4.6,4.6-.9.9Z"/>
    <path class="cls-8" d="M92.9,522.1l-4.6-4.6.9-.9,5.2,1.1-3.2-3.2.9-.9,4.6,4.6-.9.9-5.2-1.1,3.2,3.2-.9.9h0Z"/>
    <path class="cls-8" d="M100.1,515.1c-.4.4-.9.7-1.4.8s-1,0-1.6,0c-.5-.2-1-.5-1.5-1s-.8-1-1-1.5-.2-1.1,0-1.6c0-.5.4-1,.9-1.5s1.1-.8,1.7-.9c.6,0,1.2,0,1.8.4l-1,1c-.3-.1-.6-.2-.8-.1s-.6.2-.8.5c-.3.3-.5.6-.5.9v1c0,.3.4.7.7,1,.3.3.7.6,1,.7s.7.2,1,0c.3,0,.6-.2.9-.5.4-.4.6-.8.6-1.2s-.2-.8-.5-1.2l-1.1,1.1-.7-.7,2-2,2.6,2.6-.8.8-.7-.5v.7c0,.2,0,.5-.2.7,0,.2-.3.4-.5.7h0v-.2Z"/>
  </g>
  <g>
    <path class="cls-8" d="M105.3,396.8l-4.6-4.6,1.8-1.8c.3-.3.6-.5.9-.6s.6-.1.9,0,.6.2.8.5.4.5.4.7v.8c0,.2-.2.5-.4.7v-.2c.2-.2.5-.3.7-.4h.8c.3,0,.5.2.7.4.2.2.4.5.5.8v.9c0,.3-.3.6-.6,1l-1.9,1.9h0ZM103.4,393.2l.8-.8c.2-.2.3-.5.4-.7,0-.2,0-.4-.3-.6-.2-.2-.4-.3-.6-.3s-.5.1-.7.4l-.8.8,1.2,1.2h0ZM105.4,395.2l.9-.9c.2-.2.3-.5.4-.7,0-.2,0-.5-.3-.7s-.4-.3-.7-.3-.5.1-.7.4l-.9.9,1.3,1.3h0Z"/>
    <path class="cls-8" d="M112.7,389.4l-5.8-3.5.9-.9,4.4,2.8-2.7-4.5,1-1,4.5,2.7-2.8-4.4.9-.9,3.4,5.8-1,1-4.2-2.5,2.5,4.3-1,1h-.1Z"/>
    <path class="cls-8" d="M118.8,383.3l-4.6-4.6.9-.9,4.6,4.6-.9.9Z"/>
    <path class="cls-8" d="M121,381.1l-4.6-4.6.9-.9,5.2,1.1-3.2-3.2.9-.9,4.6,4.6-.9.9-5.2-1.1,3.2,3.2-.9.9h0Z"/>
    <path class="cls-8" d="M128.1,374.1c-.4.4-.9.7-1.4.8s-1,0-1.6,0-1-.5-1.5-1-.8-1-1-1.5-.2-1.1,0-1.6c0-.5.4-1,.9-1.5s1.1-.8,1.7-.9c.6,0,1.2,0,1.8.4l-1,1c-.3-.1-.6-.2-.8-.1-.3,0-.6.2-.8.5-.3.3-.5.6-.5.9v1c0,.3.4.7.7,1,.3.3.7.6,1,.7s.7.2,1,0,.6-.2.9-.5c.4-.4.6-.8.6-1.2s-.2-.8-.5-1.2l-1.1,1.1-.7-.7,2-2,2.6,2.6-.8.8-.7-.5v.7c0,.2-.1.4-.2.7s-.3.4-.5.6h-.1Z"/>
  </g>
  <g class="cls-10">
    <path class="cls-6" d="M109.5,178.8v-8.4h2.7c.7,0,1.2.1,1.6.3.4.2.7.5.9.9.2.4.3.8.3,1.2s-.1.9-.3,1.2c-.2.4-.5.7-.9.9-.4.2-1,.3-1.6.3h-1.7v3.5h-1ZM110.5,174.5h1.6c.6,0,1.1-.2,1.4-.5.3-.3.4-.7.4-1.2s-.1-.9-.4-1.2-.8-.4-1.4-.4h-1.6v3.3ZM113.9,178.8l-1.8-3.8h1.1l1.9,3.8h-1.2Z"/>
    <path class="cls-6" d="M118.9,178.9c-.6,0-1.1-.1-1.5-.4-.4-.3-.8-.6-1-1.1-.2-.5-.4-1-.4-1.7s.1-1.2.4-1.7c.2-.5.6-.8,1-1.1.4-.3,1-.4,1.5-.4s1.1.1,1.5.4.7.6,1,1,.3.9.3,1.4v.3c0,0,0,.2,0,.3h-5v-.8h4c0-.6-.2-1-.5-1.3-.3-.3-.8-.5-1.3-.5s-.7,0-.9.2c-.3.2-.5.4-.7.7s-.3.7-.3,1.1v.3c0,.5,0,.9.3,1.2.2.3.4.6.7.8s.6.3.9.3.8,0,1-.3c.3-.2.5-.4.6-.8h1c-.1.4-.3.7-.5,1-.2.3-.5.5-.9.7s-.8.3-1.2.3Z"/>
    <path class="cls-6" d="M125.3,178.9c-.5,0-.9,0-1.3-.3s-.7-.4-.9-.7c-.2-.3-.4-.7-.4-1.1h1c0,.2.1.4.3.6s.3.3.5.4c.2.1.5.2.8.2s.5,0,.7-.1c.2,0,.3-.2.4-.3,0-.1.1-.3.1-.5,0-.2,0-.4-.2-.6-.1-.1-.3-.2-.5-.3-.2,0-.5-.1-.8-.2-.3,0-.5-.1-.8-.2-.3,0-.5-.2-.7-.3-.2-.1-.4-.3-.5-.5-.1-.2-.2-.4-.2-.7s0-.6.3-.9c.2-.3.4-.5.8-.6s.7-.2,1.2-.2c.6,0,1.2.2,1.6.5.4.3.6.8.7,1.4h-1c0-.3-.2-.5-.4-.7-.2-.2-.5-.3-.9-.3s-.7,0-.9.2c-.2.2-.3.4-.3.6s0,.3.2.4c.1.1.3.2.5.3s.5.2.8.2c.4,0,.8.2,1.1.3.3.1.6.3.8.5.2.2.3.6.3,1s0,.7-.3,1-.5.5-.8.7c-.3.2-.7.2-1.2.2Z"/>
    <path class="cls-6" d="M131.2,178.8c-.4,0-.7,0-.9-.2-.3-.1-.5-.3-.6-.6-.1-.3-.2-.6-.2-1.1v-3.4h-1.1v-.9h1.1v-1.5h1v1.5h1.8v.9h-1.8v3.4c0,.4,0,.6.2.8.2.1.4.2.8.2h.6v.9h-.9Z"/>
    <path class="cls-6" d="M133.5,178.8v-6h.9v1.2c.2-.3.4-.5.6-.7.2-.2.5-.3.8-.4.3-.1.6-.2,1-.2v1.1h-.4c-.3,0-.5,0-.7.1-.2,0-.4.2-.6.3-.2.2-.3.4-.4.6s-.1.6-.1,1v3.1h-1Z"/>
    <path class="cls-6" d="M140.4,178.9c-.6,0-1.1-.1-1.5-.4-.4-.3-.8-.6-1.1-1.1-.3-.5-.4-1-.4-1.7s.1-1.2.4-1.7c.3-.5.6-.8,1.1-1.1s1-.4,1.5-.4,1.1.1,1.5.4c.4.3.8.6,1.1,1.1.3.5.4,1,.4,1.7s-.1,1.2-.4,1.7c-.3.5-.6.8-1.1,1.1-.4.3-1,.4-1.5.4ZM140.4,178.1c.3,0,.7,0,1-.3.3-.2.5-.4.7-.8s.3-.8.3-1.3,0-.9-.3-1.3c-.2-.3-.4-.6-.7-.8-.3-.2-.6-.3-1-.3s-.7,0-1,.3c-.3.2-.5.4-.7.8-.2.3-.3.8-.3,1.3s0,.9.3,1.3c.2.3.4.6.7.8.3.2.6.3,1,.3Z"/>
    <path class="cls-6" d="M147.5,178.9c-.6,0-1.1-.1-1.5-.4-.4-.3-.8-.6-1.1-1.1-.3-.5-.4-1-.4-1.7s.1-1.2.4-1.7c.3-.5.6-.8,1.1-1.1s1-.4,1.5-.4,1.1.1,1.5.4c.4.3.8.6,1.1,1.1.3.5.4,1,.4,1.7s-.1,1.2-.4,1.7c-.3.5-.6.8-1.1,1.1-.4.3-1,.4-1.5.4ZM147.5,178.1c.3,0,.7,0,1-.3.3-.2.5-.4.7-.8s.3-.8.3-1.3,0-.9-.3-1.3c-.2-.3-.4-.6-.7-.8-.3-.2-.6-.3-1-.3s-.7,0-1,.3c-.3.2-.5.4-.7.8-.2.3-.3.8-.3,1.3s0,.9.3,1.3c.2.3.4.6.7.8.3.2.6.3,1,.3Z"/>
    <path class="cls-6" d="M151.9,178.8v-6h.9v.9c.3-.3.5-.6.8-.7.3-.2.7-.3,1.1-.3s.6,0,.8.1.5.2.7.4c.2.2.4.4.5.7.2-.4.5-.7.9-.9.4-.2.8-.3,1.2-.3s.9,0,1.2.3c.3.2.6.5.8.9s.3.9.3,1.4v3.6h-1v-3.5c0-.6-.1-1.1-.4-1.4s-.6-.5-1.1-.5-.6,0-.8.2-.4.4-.6.7c-.1.3-.2.7-.2,1.2v3.2h-1v-3.5c0-.6-.1-1.1-.4-1.4s-.6-.5-1-.5-.6,0-.8.2-.4.4-.6.7c-.1.3-.2.7-.2,1.2v3.2h-1Z"/>
    <path class="cls-6" d="M164.9,178.9c-.5,0-.9,0-1.3-.3s-.7-.4-.9-.7c-.2-.3-.4-.7-.4-1.1h1c0,.2.1.4.3.6s.3.3.5.4c.2.1.5.2.8.2s.5,0,.7-.1c.2,0,.3-.2.4-.3,0-.1.1-.3.1-.5,0-.2,0-.4-.2-.6-.1-.1-.3-.2-.5-.3-.2,0-.5-.1-.8-.2-.3,0-.5-.1-.8-.2-.3,0-.5-.2-.7-.3-.2-.1-.4-.3-.5-.5-.1-.2-.2-.4-.2-.7s0-.6.3-.9c.2-.3.4-.5.8-.6s.7-.2,1.2-.2c.6,0,1.2.2,1.6.5.4.3.6.8.7,1.4h-1c0-.3-.2-.5-.4-.7-.2-.2-.5-.3-.9-.3s-.7,0-.9.2c-.2.2-.3.4-.3.6s0,.3.2.4c.1.1.3.2.5.3s.5.2.8.2c.4,0,.8.2,1.1.3.3.1.6.3.8.5.2.2.3.6.3,1s0,.7-.3,1-.5.5-.8.7c-.3.2-.7.2-1.2.2Z"/>
  </g>
  <g class="cls-10">
    <path class="cls-6" d="M109.5,200.9v-8.4h5.2v.8h-4.2v2.9h3.8v.8h-3.8v3h4.2v.8h-5.2Z"/>
    <path class="cls-6" d="M115.6,200.9l2.1-3-2.1-3h1.1l1.6,2.5,1.7-2.5h1.1l-2.1,3,2.1,3h-1.1l-1.7-2.5-1.6,2.5h-1.1Z"/>
    <path class="cls-6" d="M122.8,193.5c-.2,0-.4,0-.5-.2-.1-.1-.2-.3-.2-.5s0-.4.2-.5c.1-.1.3-.2.5-.2s.4,0,.5.2c.1.1.2.3.2.5s0,.4-.2.5c-.1.1-.3.2-.5.2ZM122.3,200.9v-6h1v6h-1Z"/>
    <path class="cls-6" d="M127.4,200.9c-.4,0-.7,0-.9-.2-.3-.1-.5-.3-.6-.6-.1-.3-.2-.6-.2-1.1v-3.4h-1.1v-.9h1.1v-1.5h1v1.5h1.8v.9h-1.8v3.4c0,.4,0,.6.2.8.2.1.4.2.8.2h.6v.9h-.9Z"/>
    <path class="cls-6" d="M132,201c-.5,0-.9,0-1.3-.3s-.7-.4-.9-.7c-.2-.3-.4-.7-.4-1.1h1c0,.2.1.4.3.6s.3.3.5.4c.2.1.5.2.8.2s.5,0,.7-.1c.2,0,.3-.2.4-.3,0-.1.1-.3.1-.5,0-.2,0-.4-.2-.6-.1-.1-.3-.2-.5-.3-.2,0-.5-.1-.8-.2-.3,0-.5-.1-.8-.2-.3,0-.5-.2-.7-.3-.2-.1-.4-.3-.5-.5-.1-.2-.2-.4-.2-.7s0-.6.3-.9c.2-.3.4-.5.8-.6s.7-.2,1.2-.2c.6,0,1.2.2,1.6.5.4.3.6.8.7,1.4h-1c0-.3-.2-.5-.4-.7-.2-.2-.5-.3-.9-.3s-.7,0-.9.2c-.2.2-.3.4-.3.6s0,.3.2.4c.1.1.3.2.5.3s.5.2.8.2c.4,0,.8.2,1.1.3.3.1.6.3.8.5.2.2.3.6.3,1s0,.7-.3,1-.5.5-.8.7c-.3.2-.7.2-1.2.2Z"/>
  </g>
  <g>
    <circle class="cls-8" cx="95.7" cy="175.5" r="7.9"/>
    <g>
      <path class="cls-5" d="M93.4,172.6c.5,0,.9-.4.9-.9s-.4-.9-.9-.9-.9.4-.9.9.4.9.9.9Z"/>
      <path class="cls-5" d="M94.2,173.1h-1.5c-.4,0-.9.5-.9.9v2.9c0,.2.2.4.4.4h.3v2.5c0,.2.3.4.5.4h.9c.2,0,.4-.2.4-.4v-2.5h.4c.2,0,.4-.2.4-.4v-2.9c0-.4-.5-.9-.9-.9Z"/>
      <path class="cls-5" d="M97.5,172.6c.5,0,.9-.4.9-.9s-.4-.9-.9-.9-.9.4-.9.9.4.9.9.9Z"/>
      <path class="cls-5" d="M99.5,177.7l-.9-2.1.3-1.5c0-.6-.4-1-.8-1h-1.3c-.4,0-.8.4-.8,1l.3,1.5-.9,2.1v.3s.2.1.3.1h.9l.2,1.7c0,.2,0,.3.3.3h.6c.2,0,.3-.1.3-.3l.2-1.7h.9c0,0,.2,0,.3-.1v-.3h0Z"/>
    </g>
  </g>
  <g>
    <circle class="cls-9" cx="95.7" cy="196.4" r="7.9"/>
    <g>
      <path class="cls-5" d="M97.8,200.2h-4c-.3,0-.5-.2-.5-.5v-6.5h4.5c.3,0,.5-.2.5-.5s-.2-.5-.5-.5h-5c-.3,0-.5.2-.5.5v7c0,.8.7,1.5,1.5,1.5h4c.3,0,.5-.2.5-.5s-.2-.5-.5-.5Z"/>
      <path class="cls-5" d="M100.3,196.5h0c0-.1-1.5-1.6-1.5-1.6-.2-.2-.5-.2-.7,0s-.2.5,0,.7l.6.6h-3.8c-.3,0-.5.2-.5.5s.2.5.5.5h3.8l-.6.6c-.2.2-.2.5,0,.7s.2.1.4.1.3,0,.4-.1l1.5-1.5h0v-.5h-.1Z"/>
    </g>
  </g>
</svg>