<?xml version="1.0" encoding="UTF-8"?>
<svg id="Layer_1" data-name="Layer 1" xmlns="http://www.w3.org/2000/svg" viewBox="0 0 15.88 15.69">
  <defs>
    <style>
      .cls-1 {
        fill: #4b2a6f;
      }

      .cls-1, .cls-2 {
        stroke-width: 0px;
      }

      .cls-2 {
        fill: #fff;
      }
    </style>
  </defs>
  <circle class="cls-1" cx="7.94" cy="7.84" r="7.9"/>
  <g>
    <path class="cls-2" d="M4.59,11.03v-4.83l-1.1.29v-.96l1.59-.71h.73v6.2h-1.23Z"/>
    <path class="cls-2" d="M9.56,11.14c-.57,0-1.05-.14-1.46-.41s-.72-.65-.93-1.13c-.22-.48-.32-1.04-.32-1.67s.11-1.19.32-1.67c.21-.48.53-.86.93-1.13s.89-.41,1.46-.41,1.05.14,1.45.41.71.65.93,1.13c.22.48.33,1.04.33,1.67s-.11,1.19-.33,1.67c-.22.48-.53.86-.93,1.13s-.88.41-1.45.41ZM9.55,10.07c.29,0,.55-.09.78-.26.22-.17.4-.42.53-.74.13-.32.19-.7.19-1.13s-.06-.81-.19-1.13c-.13-.32-.3-.56-.53-.74-.22-.17-.48-.26-.78-.26s-.55.09-.78.26c-.22.17-.4.42-.52.74-.12.32-.19.7-.19,1.13s.06.81.19,1.13c.12.32.3.57.52.74.22.17.48.26.78.26Z"/>
  </g>
</svg>