<?xml version="1.0" encoding="UTF-8"?>
<svg id="Layer_1" data-name="Layer 1" xmlns="http://www.w3.org/2000/svg" viewBox="0 0 15.88 15.69">
  <defs>
    <style>
      .cls-1 {
        fill: #4b2a6f;
      }

      .cls-1, .cls-2 {
        stroke-width: 0px;
      }

      .cls-2 {
        fill: #fff;
      }
    </style>
  </defs>
  <circle class="cls-1" cx="7.94" cy="7.84" r="7.9"/>
  <g>
    <path class="cls-2" d="M5.04,11.03v-4.82l-1.1.29v-.96l1.59-.71h.73v6.2h-1.23Z"/>
    <path class="cls-2" d="M9.53,11.14c-.4,0-.77-.07-1.11-.22-.34-.15-.6-.37-.81-.67-.2-.3-.31-.68-.32-1.14h1.17c.01.19.06.37.14.53.08.16.2.28.36.37.16.09.35.14.56.14s.38-.04.53-.12c.15-.08.26-.19.34-.33.08-.14.12-.29.12-.47,0-.21-.05-.38-.15-.52-.1-.14-.24-.24-.42-.31s-.39-.11-.62-.11h-.46v-.98h.46c.29,0,.54-.07.74-.21.2-.14.3-.34.3-.62,0-.22-.07-.4-.22-.54s-.35-.2-.61-.2c-.28,0-.5.08-.66.25-.16.17-.25.37-.26.61h-1.17c.02-.39.12-.72.29-1,.18-.28.42-.49.73-.64s.67-.22,1.08-.22c.43,0,.79.08,1.09.23.3.15.52.36.68.61.15.25.23.52.23.82,0,.24-.04.46-.14.64-.09.19-.21.34-.37.47-.15.13-.33.22-.51.28.23.04.43.13.61.26s.31.3.41.51c.1.21.15.45.15.72,0,.34-.08.65-.25.93-.17.29-.41.51-.73.69-.32.17-.71.26-1.18.26Z"/>
  </g>
</svg>