<?xml version="1.0" encoding="UTF-8"?>
<svg id="Layer_1" data-name="Layer 1" xmlns="http://www.w3.org/2000/svg" viewBox="0 0 15.88 15.69">
  <defs>
    <style>
      .cls-1 {
        fill: #4b2a6f;
      }

      .cls-1, .cls-2 {
        stroke-width: 0px;
      }

      .cls-2 {
        fill: #fff;
      }
    </style>
  </defs>
  <circle class="cls-1" cx="7.94" cy="7.84" r="7.9"/>
  <g>
    <path class="cls-2" d="M4.96,11.03v-4.83l-1.1.29v-.96l1.59-.71h.73v6.2h-1.23Z"/>
    <path class="cls-2" d="M9.63,11.14c-.46,0-.85-.08-1.18-.24-.32-.16-.58-.38-.77-.66s-.29-.59-.31-.94h1.17c.04.23.16.42.35.58.19.16.44.23.73.23.21,0,.4-.05.55-.15.16-.1.28-.25.37-.43.09-.18.14-.39.14-.61s-.05-.44-.14-.62c-.09-.18-.21-.31-.37-.4-.16-.09-.34-.13-.54-.13-.25,0-.46.06-.64.18-.18.12-.31.26-.39.43h-1.15l.5-3.55h3.49v1.04h-2.59l-.25,1.39c.13-.14.3-.25.51-.34.21-.08.46-.13.74-.13.34,0,.63.06.88.17s.45.27.62.47c.17.2.29.43.37.68.08.25.12.51.12.79,0,.33-.05.63-.16.9-.11.27-.26.51-.46.7s-.43.35-.7.46c-.27.11-.57.16-.89.16Z"/>
  </g>
</svg>