<?xml version="1.0" encoding="UTF-8"?>
<svg id="Layer_1" data-name="Layer 1" xmlns="http://www.w3.org/2000/svg" viewBox="0 0 15.88 15.69">
  <defs>
    <style>
      .cls-1 {
        fill: #4b2a6f;
      }

      .cls-1, .cls-2 {
        stroke-width: 0px;
      }

      .cls-2 {
        fill: #fff;
      }
    </style>
  </defs>
  <circle class="cls-1" cx="7.94" cy="7.84" r="7.9"/>
  <path class="cls-2" d="M5.84,11.03v-.88c.38-.3.75-.6,1.1-.9s.68-.6.96-.9.51-.59.67-.87c.17-.28.25-.56.25-.82,0-.17-.03-.32-.09-.46-.06-.14-.16-.25-.29-.34-.13-.08-.3-.13-.5-.13s-.38.05-.52.14-.25.22-.32.38c-.07.16-.11.33-.11.53h-1.15c.01-.46.11-.84.3-1.14.19-.31.44-.54.77-.69.32-.15.68-.23,1.07-.23.44,0,.81.08,1.11.24.3.16.53.38.69.65.16.28.24.59.24.96,0,.27-.05.54-.15.8s-.24.51-.41.76c-.17.25-.37.48-.59.7-.22.22-.45.44-.68.64-.24.2-.47.39-.69.57h2.66v.97h-4.32Z"/>
</svg>