<?xml version="1.0" encoding="UTF-8"?>
<svg id="Layer_1" data-name="Layer 1" xmlns="http://www.w3.org/2000/svg" viewBox="0 0 15.88 15.69">
  <defs>
    <style>
      .cls-1 {
        fill: #4b2a6f;
      }

      .cls-1, .cls-2 {
        stroke-width: 0px;
      }

      .cls-2 {
        fill: #fff;
      }
    </style>
  </defs>
  <circle class="cls-1" cx="7.94" cy="7.84" r="7.9"/>
  <path class="cls-2" d="M8.07,11.14c-.47,0-.86-.09-1.18-.26-.32-.17-.58-.4-.77-.69-.19-.29-.33-.61-.42-.97-.09-.36-.13-.72-.13-1.08,0-.7.1-1.3.29-1.81.2-.51.48-.9.84-1.18.37-.28.81-.42,1.33-.42.44,0,.8.08,1.1.25.3.17.53.38.7.66.17.27.27.57.29.89h-1.11c-.05-.26-.16-.46-.34-.6-.18-.14-.4-.21-.67-.21-.25,0-.47.08-.65.23-.19.15-.34.38-.44.69-.1.31-.16.69-.18,1.16v.05c.09-.15.22-.29.37-.42.15-.13.33-.23.54-.3.2-.07.42-.11.63-.11.34,0,.66.08.96.25.3.17.53.4.71.7.18.3.27.66.27,1.07,0,.37-.09.72-.27,1.04-.18.32-.43.58-.75.77-.32.19-.7.29-1.13.29ZM8,10.11c.21,0,.4-.04.56-.13.16-.09.29-.21.38-.37.09-.16.14-.33.14-.54,0-.21-.05-.4-.14-.55-.09-.16-.22-.28-.39-.36-.17-.09-.35-.13-.57-.13s-.39.04-.55.13c-.16.09-.29.21-.39.37s-.15.34-.15.54.05.39.15.54.23.28.4.37c.17.09.35.13.56.13Z"/>
</svg>