<?xml version="1.0" encoding="UTF-8"?>
<svg id="Layer_1" data-name="Layer 1" xmlns="http://www.w3.org/2000/svg" viewBox="0 0 15.88 15.69">
  <defs>
    <style>
      .cls-1 {
        fill: #4b2a6f;
      }

      .cls-1, .cls-2 {
        stroke-width: 0px;
      }

      .cls-2 {
        fill: #fff;
      }
    </style>
  </defs>
  <circle class="cls-1" cx="7.94" cy="7.84" r="7.9"/>
  <path class="cls-2" d="M7.94,11.14c-.42,0-.81-.08-1.15-.23-.34-.15-.61-.37-.82-.65-.21-.28-.31-.6-.31-.97,0-.25.04-.48.13-.69s.21-.39.36-.55c.15-.16.34-.28.55-.36-.27-.12-.48-.3-.64-.53-.16-.23-.24-.49-.24-.78s.08-.56.24-.81c.16-.25.4-.46.71-.61.32-.15.7-.23,1.16-.23s.86.08,1.17.23c.31.15.55.36.7.61.16.25.23.53.23.81s-.08.54-.24.77c-.16.23-.38.41-.65.54.22.09.41.21.56.37s.28.34.36.54c.08.21.12.44.12.69,0,.37-.1.69-.3.97-.2.28-.47.49-.81.65-.34.15-.73.23-1.15.23ZM7.94,10.14c.36,0,.63-.09.81-.27.18-.18.27-.4.27-.67,0-.3-.1-.54-.29-.71-.19-.17-.46-.26-.8-.26s-.61.09-.81.26c-.2.17-.3.41-.3.71,0,.27.09.5.28.67.19.18.46.27.82.27ZM7.94,7.35c.29,0,.53-.08.69-.23.17-.15.25-.35.25-.59,0-.26-.08-.46-.24-.61-.16-.14-.39-.22-.69-.22s-.52.07-.69.22c-.16.15-.24.35-.24.62,0,.24.08.43.24.58.16.15.39.23.69.23Z"/>
</svg>