<?xml version="1.0" encoding="UTF-8"?>
<svg id="Layer_1" data-name="Layer 1" xmlns="http://www.w3.org/2000/svg" viewBox="0 0 15.88 15.69">
  <defs>
    <style>
      .cls-1 {
        fill: #4b2a6f;
      }

      .cls-1, .cls-2 {
        stroke-width: 0px;
      }

      .cls-2 {
        fill: #fff;
      }
    </style>
  </defs>
  <circle class="cls-1" cx="7.94" cy="7.84" r="7.9"/>
  <path class="cls-2" d="M7.83,11.14c-.43,0-.79-.08-1.09-.25-.3-.17-.53-.39-.69-.66-.17-.27-.26-.57-.29-.88h1.12c.05.26.15.46.32.6.17.14.39.21.66.21s.48-.08.66-.23c.18-.15.33-.38.44-.68.11-.3.17-.68.17-1.12,0-.02,0-.04,0-.05v-.04c-.09.15-.21.29-.37.42s-.34.23-.54.3c-.2.07-.41.11-.62.11-.34,0-.66-.08-.96-.25-.3-.17-.54-.4-.72-.7-.18-.3-.27-.66-.27-1.07,0-.38.09-.73.27-1.04.18-.32.44-.57.77-.77s.7-.29,1.13-.29c.46,0,.85.09,1.17.26.32.17.58.4.77.69.19.29.33.61.42.97.08.36.13.72.13,1.08,0,.69-.1,1.29-.29,1.8-.19.51-.47.91-.84,1.19-.37.28-.82.42-1.34.42ZM7.88,7.84c.21,0,.39-.04.56-.13s.3-.21.39-.37c.09-.16.14-.34.14-.54s-.04-.39-.14-.54c-.09-.16-.22-.28-.39-.37s-.36-.13-.57-.13-.39.04-.56.13-.29.21-.38.36c-.09.15-.14.33-.14.54s.05.4.14.55c.09.16.22.28.39.36s.35.13.56.13Z"/>
</svg>