<?xml version="1.0" encoding="UTF-8"?>
<svg id="Layer_1" data-name="Layer 1" xmlns="http://www.w3.org/2000/svg" viewBox="0 0 15.81 15.81">
  <defs>
    <style>
      .cls-1 {
        fill: #ca2c61;
      }

      .cls-1, .cls-2 {
        stroke-width: 0px;
      }

      .cls-2 {
        fill: #fff;
      }
    </style>
  </defs>
  <circle class="cls-1" cx="7.9" cy="7.9" r="7.9"/>
  <g>
    <path class="cls-2" d="M10.02,11.69h-4.01c-.28,0-.5-.23-.5-.5v-6.51h4.51c.28,0,.5-.22.5-.5s-.22-.5-.5-.5h-5.01c-.28,0-.5.22-.5.5v7.01c0,.83.67,1.5,1.5,1.5h4.01c.28,0,.5-.22.5-.5s-.22-.5-.5-.5Z"/>
    <path class="cls-2" d="M12.48,7.98h0s-.05-.09-.08-.13h0s0,0,0,0c0,0-.01-.01-.02-.02l-1.5-1.5c-.2-.2-.51-.2-.71,0s-.2.51,0,.71l.65.65h-3.8c-.28,0-.5.22-.5.5s.22.5.5.5h3.8l-.65.65c-.2.2-.2.51,0,.71.1.1.23.15.35.15s.26-.05.35-.15l1.5-1.5s.01-.01.02-.02c0,0,0,0,0,0h0s.06-.08.08-.13h0c.03-.06.04-.13.04-.21s-.02-.14-.04-.21Z"/>
  </g>
</svg>