<?xml version="1.0" encoding="UTF-8"?>
<svg id="Layer_1" data-name="Layer 1" xmlns="http://www.w3.org/2000/svg" viewBox="0 0 15.81 15.81">
  <defs>
    <style>
      .cls-1 {
        fill: #4b2a6f;
      }

      .cls-1, .cls-2 {
        stroke-width: 0px;
      }

      .cls-2 {
        fill: #fff;
      }
    </style>
  </defs>
  <circle class="cls-1" cx="7.9" cy="7.9" r="7.9"/>
  <g id="SVGRepo_iconCarrier" data-name="SVGRepo iconCarrier">
    <path class="cls-2" d="M8.1,3.26c-.12-.06-.26-.06-.38,0l-4.26,2.13c-.14.07-.24.22-.24.38s.09.31.24.38l4.26,2.13c.12.06.26.06.38,0l4.26-2.13c.14-.07.24-.22.24-.38s-.09-.31-.24-.38l-4.26-2.13Z"/>
    <path class="cls-2" d="M3.26,9.84c.11-.21.36-.3.57-.19l4.07,2.04,4.07-2.04c.21-.11.47-.02.57.19.11.21.02.47-.19.57l-4.26,2.13c-.12.06-.26.06-.38,0l-4.26-2.13c-.21-.11-.3-.36-.19-.57Z"/>
    <path class="cls-2" d="M3.83,7.52c-.21-.11-.47-.02-.57.19-.11.21-.02.47.19.57l4.26,2.13c.12.06.26.06.38,0l4.26-2.13c.21-.11.3-.36.19-.57-.11-.21-.36-.3-.57-.19l-4.07,2.04-4.07-2.04Z"/>
  </g>
</svg>