<?xml version="1.0" encoding="UTF-8"?>
<svg id="Layer_1" data-name="Layer 1" xmlns="http://www.w3.org/2000/svg" viewBox="0 0 15.81 15.81">
  <defs>
    <style>
      .cls-1 {
        fill: #4b2a6f;
      }

      .cls-1, .cls-2 {
        stroke-width: 0px;
      }

      .cls-2 {
        fill: #fff;
      }
    </style>
  </defs>
  <circle class="cls-1" cx="7.9" cy="7.9" r="7.9"/>
  <g>
    <path class="cls-2" d="M5.65,5.04c.48,0,.87-.39.87-.87s-.39-.87-.87-.87-.87.39-.87.87.39.87.87.87Z"/>
    <path class="cls-2" d="M6.4,5.45h-1.52c-.42,0-.88.46-.88.88v2.91c0,.21.17.38.38.38h.27l.14,2.48c0,.22.18.4.4.4h.88c.22,0,.4-.18.4-.4l.14-2.48h.27c.21,0,.38-.17.38-.38v-2.91c0-.42-.46-.88-.88-.88Z"/>
    <path class="cls-2" d="M9.71,5.04c.48,0,.87-.39.87-.87s-.39-.87-.87-.87-.87.39-.87.87c0,.48.39.87.87.87Z"/>
    <path class="cls-2" d="M11.78,10.08l-.9-2.11.3-1.51c.03-.57-.4-1-.82-1h-1.29c-.42,0-.85.43-.82,1l.3,1.51-.9,2.11c-.04.09-.03.2.03.29.06.09.15.14.26.14h.95l.24,1.66c0,.16.13.29.29.29h.59c.16,0,.29-.13.29-.29l.24-1.66h.95c.1,0,.2-.05.26-.14.06-.09.07-.19.03-.29Z"/>
  </g>
</svg>